<svg xmlns="http://www.w3.org/2000/svg" viewBox="0 0 24 24"><path d="M7.52 21.48A10.49 10.49 0 011.55 13H.05A12 12 0 0012 24l.66-.03-3.81-3.81-1.33 1.32zm.89-6.52c-.19 0-.37-.03-.52-.08a1.07 1.07 0 01-.4-.24 1 1 0 01-.26-.37 1.2 1.2 0 01-.09-.47h-1.3a2.05 2.05 0 001.59 2.05 3.37 3.37 0 001.99 0c.32-.1.6-.25.83-.44s.42-.43.55-.72a2.34 2.34 0 00.13-1.53 1.8 1.8 0 00-1.24-1.25 2.1 2.1 0 00.89-.75 1.76 1.76 0 00.29-.94c0-.36-.06-.68-.18-.96a2.06 2.06 0 00-1.28-1.12 3.64 3.64 0 00-2.02.02c-.3.11-.57.26-.79.45a2 2 0 00-.69 1.52h1.3c0-.17.03-.32.09-.45s.14-.25.25-.34c.11-.09.23-.17.38-.22.15-.05.3-.08.48-.08.4 0 .7.1.89.31.19.2.29.49.29.86 0 .18-.03.34-.08.49a.87.87 0 01-.25.37c-.11.1-.25.18-.41.24-.16.06-.36.09-.58.09H7.5v1.03h.77c.22 0 .42.02.6.07s.33.13.45.23a1.18 1.18 0 01.39.97c0 .41-.12.72-.35.93-.23.23-.55.33-.95.33zm8.55-5.92c-.32-.33-.7-.59-1.14-.77A3.76 3.76 0 0014.36 8H12v8h2.3c.55 0 1.06-.09 1.51-.27a3.3 3.3 0 001.9-1.95c.17-.47.26-.99.26-1.57v-.4c0-.58-.09-1.1-.26-1.57a3.5 3.5 0 00-.75-1.2zm-.39 3.16c0 .42-.05.79-.14 1.13-.1.33-.24.62-.43.85-.19.23-.43.41-.71.53-.29.12-.62.18-.99.18h-.91V9.12h.97c.72 0 1.27.23 1.64.69.38.46.57 1.12.57 1.99v.4zM12 0l-.66.03 3.81 3.81 1.33-1.33a10.47 10.47 0 015.96 8.48h1.5A11.98 11.98 0 0012 0z"/></svg>