<svg xmlns="http://www.w3.org/2000/svg" viewBox="0 0 24 24"><path d="M5 17.5a1.5 1.5 0 100-3 1.5 1.5 0 000 3zM9 13c.6 0 1-.5 1-1s-.5-1-1-1-1 .5-1 1 .5 1 1 1zm0-4c.6 0 1-.5 1-1s-.5-1-1-1-1 .5-1 1 .5 1 1 1zM3 21h18v-2H3v2zM5 9.5a1.5 1.5 0 100-3 1.5 1.5 0 000 3zm0 4a1.5 1.5 0 100-3 1.5 1.5 0 000 3zM9 17c.6 0 1-.5 1-1s-.5-1-1-1-1 .5-1 1 .5 1 1 1zm8-.5c.3 0 .5-.2.5-.5s-.2-.5-.5-.5-.5.2-.5.5.2.5.5.5zM3 3v2h18V3H3zm14 5.5c.3 0 .5-.2.5-.5s-.2-.5-.5-.5-.5.2-.5.5.2.5.5.5zm0 4c.3 0 .5-.2.5-.5s-.2-.5-.5-.5-.5.2-.5.5.2.5.5.5zM13 9c.6 0 1-.5 1-1s-.5-1-1-1-1 .5-1 1 .5 1 1 1zm0 4c.6 0 1-.5 1-1s-.5-1-1-1-1 .5-1 1 .5 1 1 1zm0 4c.6 0 1-.5 1-1s-.5-1-1-1-1 .5-1 1 .5 1 1 1z"/></svg>