<svg xmlns="http://www.w3.org/2000/svg" viewBox="0 0 24 24"><path d="M6 13c-.6 0-1 .5-1 1s.5 1 1 1 1-.5 1-1-.5-1-1-1zm0 4c-.6 0-1 .5-1 1s.5 1 1 1 1-.5 1-1-.5-1-1-1zm0-8c-.6 0-1 .5-1 1s.5 1 1 1 1-.5 1-1-.5-1-1-1zm-3 .5c-.3 0-.5.2-.5.5s.2.5.5.5.5-.2.5-.5-.2-.5-.5-.5zM6 5c-.6 0-1 .5-1 1s.5 1 1 1 1-.5 1-1-.5-1-1-1zm15 5.5c.3 0 .5-.2.5-.5s-.2-.5-.5-.5-.5.2-.5.5.2.5.5.5zM14 7c.6 0 1-.5 1-1s-.5-1-1-1-1 .5-1 1 .5 1 1 1zm0-3.5c.3 0 .5-.2.5-.5s-.2-.5-.5-.5-.5.2-.5.5.2.5.5.5zm-11 10c-.3 0-.5.2-.5.5s.2.5.5.5.5-.2.5-.5-.2-.5-.5-.5zm7 7c-.3 0-.5.2-.5.5s.2.5.5.5.5-.2.5-.5-.2-.5-.5-.5zm0-17c.3 0 .5-.2.5-.5s-.2-.5-.5-.5-.5.2-.5.5.2.5.5.5zM10 7c.6 0 1-.5 1-1s-.5-1-1-1-1 .5-1 1 .5 1 1 1zm0 5.5a1.5 1.5 0 100 3 1.5 1.5 0 000-3zm8 .5c-.6 0-1 .5-1 1s.5 1 1 1 1-.5 1-1-.5-1-1-1zm0 4c-.6 0-1 .5-1 1s.5 1 1 1 1-.5 1-1-.5-1-1-1zm0-8c-.6 0-1 .5-1 1s.5 1 1 1 1-.5 1-1-.5-1-1-1zm0-4c-.6 0-1 .5-1 1s.5 1 1 1 1-.5 1-1-.5-1-1-1zm3 8.5c-.3 0-.5.2-.5.5s.2.5.5.5.5-.2.5-.5-.2-.5-.5-.5zM14 17c-.6 0-1 .5-1 1s.5 1 1 1 1-.5 1-1-.5-1-1-1zm0 3.5c-.3 0-.5.2-.5.5s.2.5.5.5.5-.2.5-.5-.2-.5-.5-.5zm-4-12a1.5 1.5 0 100 3 1.5 1.5 0 000-3zm0 8.5c-.6 0-1 .5-1 1s.5 1 1 1 1-.5 1-1-.5-1-1-1zm4-4.5a1.5 1.5 0 100 3 1.5 1.5 0 000-3zm0-4a1.5 1.5 0 100 3 1.5 1.5 0 000-3z"/></svg>