<svg xmlns="http://www.w3.org/2000/svg" viewBox="0 0 24 24"><path d="M10 9c-.6 0-1 .5-1 1s.5 1 1 1 1-.5 1-1-.5-1-1-1zm0 4c-.6 0-1 .5-1 1s.5 1 1 1 1-.5 1-1-.5-1-1-1zM7 9.5c-.3 0-.5.2-.5.5s.2.5.5.5.5-.2.5-.5-.2-.5-.5-.5zm3 7c-.3 0-.5.2-.5.5s.2.5.5.5.5-.2.5-.5-.2-.5-.5-.5zm-3-3c-.3 0-.5.2-.5.5s.2.5.5.5.5-.2.5-.5-.2-.5-.5-.5zm3-6c.3 0 .5-.2.5-.5s-.2-.5-.5-.5-.5.2-.5.5.2.5.5.5zM14 9c-.6 0-1 .5-1 1s.5 1 1 1 1-.5 1-1-.5-1-1-1zm0-1.5c.3 0 .5-.2.5-.5s-.2-.5-.5-.5-.5.2-.5.5.2.5.5.5zm3 6c-.3 0-.5.2-.5.5s.2.5.5.5.5-.2.5-.5-.2-.5-.5-.5zm0-4c-.3 0-.5.2-.5.5s.2.5.5.5.5-.2.5-.5-.2-.5-.5-.5zM12 2a10 10 0 100 20 10 10 0 000-20zm0 18a8 8 0 110-16 8 8 0 010 16zm2-3.5c-.3 0-.5.2-.5.5s.2.5.5.5.5-.2.5-.5-.2-.5-.5-.5zm0-3.5c-.6 0-1 .5-1 1s.5 1 1 1 1-.5 1-1-.5-1-1-1z"/></svg>