<svg xmlns="http://www.w3.org/2000/svg" viewBox="0 0 24 24"><path d="M14 7c.6 0 1-.5 1-1s-.5-1-1-1-1 .5-1 1 .5 1 1 1zm-.2 4.5h.2a1.5 1.5 0 10-1.5-1.5v.2c.1.7.6 1.2 1.3 1.3zm.2-8c.3 0 .5-.2.5-.5s-.2-.5-.5-.5-.5.2-.5.5.2.5.5.5zm-4 0c.3 0 .5-.2.5-.5s-.2-.5-.5-.5-.5.2-.5.5.2.5.5.5zm11 7c.3 0 .5-.2.5-.5s-.2-.5-.5-.5-.5.2-.5.5.2.5.5.5zM10 7c.6 0 1-.5 1-1s-.5-1-1-1-1 .5-1 1 .5 1 1 1zm8 8c.6 0 1-.5 1-1s-.5-1-1-1-1 .5-1 1 .5 1 1 1zm0-4c.6 0 1-.5 1-1s-.5-1-1-1-1 .5-1 1 .5 1 1 1zm0-4c.6 0 1-.5 1-1s-.5-1-1-1-1 .5-1 1 .5 1 1 1zm-4 13.5c-.3 0-.5.2-.5.5s.2.5.5.5.5-.2.5-.5-.2-.5-.5-.5zM2.5 5.3L6.3 9H6c-.6 0-1 .5-1 1s.5 1 1 1 1-.5 1-1v-.3l2.8 2.8c-.8.1-1.3.8-1.3 1.5a1.5 1.5 0 003 .3l2.8 2.8-.3-.1c-.5 0-1 .5-1 1s.5 1 1 1 1-.4 1-1v-.3l3.7 3.8 1.3-1.3L3.8 4 2.5 5.3zM10 17c-.6 0-1 .5-1 1s.5 1 1 1 1-.5 1-1-.5-1-1-1zm11-3.5c-.3 0-.5.2-.5.5s.2.5.5.5.5-.2.5-.5-.2-.5-.5-.5zM6 13c-.6 0-1 .5-1 1s.5 1 1 1 1-.5 1-1-.5-1-1-1zM3 9.5c-.3 0-.5.2-.5.5s.2.5.5.5.5-.2.5-.5-.2-.5-.5-.5zm7 11c-.3 0-.5.2-.5.5s.2.5.5.5.5-.2.5-.5-.2-.5-.5-.5zM6 17c-.6 0-1 .5-1 1s.5 1 1 1 1-.5 1-1-.5-1-1-1zm-3-3.5c-.3 0-.5.2-.5.5s.2.5.5.5.5-.2.5-.5-.2-.5-.5-.5z"/></svg>