<svg xmlns="http://www.w3.org/2000/svg" viewBox="0 0 24 24"><circle cx="14.5" cy="10.5" r="1.25"/><circle cx="9.5" cy="10.5" r="1.25"/><path d="M22.94 12.66a3.52 3.52 0 000-1.32 4 4 0 00-2.81-3.17 9.11 9.11 0 00-2.19-2.91C16.36 3.85 14.28 3 12 3s-4.36.85-5.94 2.26a8.94 8.94 0 00-2.19 2.91 4 4 0 000 7.66 8.98 8.98 0 002.17 2.89 8.93 8.93 0 0011.93 0c.9-.8 1.65-1.79 2.17-2.89a4 4 0 002.8-3.17zM19 14c-.1 0-.19-.02-.29-.03a6.98 6.98 0 01-13.42 0c-.1.01-.19.03-.29.03-1.1 0-2-.9-2-2s.9-2 2-2c.1 0 .19.02.29.03a6.98 6.98 0 0113.42 0c.1-.01.19-.03.29-.03 1.1 0 2 .9 2 2s-.9 2-2 2zM7.5 14c.76 1.77 2.49 3 4.5 3s3.74-1.23 4.5-3h-9z"/></svg>