<svg xmlns="http://www.w3.org/2000/svg" viewBox="0 0 24 24"><path d="M15.05 16.29l2.86-3.07c.38-.39.72-.79 1.04-1.18.32-.39.59-.78.82-1.17.23-.39.41-.78.54-1.17s.19-.79.19-1.18c0-.53-.09-1.02-.27-1.46a2.94 2.94 0 00-.78-1.11 3.6 3.6 0 00-1.26-.71 5.72 5.72 0 00-3.57.08A3.8 3.8 0 0012.14 9h2.14c.01-.31.05-.6.13-.87.09-.29.23-.54.4-.75.18-.21.41-.37.68-.49.27-.12.6-.18.96-.18.31 0 .58.05.81.15.23.1.43.25.59.43.16.18.28.4.37.65a2.64 2.64 0 01-.24 2.16 12.98 12.98 0 01-1.44 1.86l-4.17 4.55V18H21v-1.71h-5.95zM2 11v2h8v-2H2z"/></svg>