<svg xmlns="http://www.w3.org/2000/svg" viewBox="0 0 24 24"><path d="M11 4V2c-2 .2-3.8 1-5.3 2.3L7 5.7A8 8 0 0111 4zm7.3.3A10 10 0 0013 2v2a8 8 0 013.9 1.7l1.4-1.4zM20 11h2c-.1-2-1-3.8-2.2-5.3L18.3 7A8 8 0 0120 11zM5.7 7.1L4.3 5.7A10 10 0 002 11h2a8 8 0 011.7-3.9zM4 13H2c.1 2 1 3.8 2.2 5.3L5.7 17A7.9 7.9 0 014 13zM15 12a3 3 0 10-6 0 3 3 0 006 0zm3.3 4.9l1.4 1.4A10 10 0 0022 13h-2a8 8 0 01-1.6 3.9zm-5.3 3v2c2-.1 3.8-1 5.3-2.2L17 18.3A7.9 7.9 0 0113 20zm-7.3-.2A10 10 0 0011 22v-2a8 8 0 01-3.9-1.7l-1.4 1.4z"/></svg>