<svg xmlns="http://www.w3.org/2000/svg" viewBox="0 0 24 24"><path d="M9.6 13.5h.4l.5-.2.2-.4v-.2l-.1-.2-.2-.1h-.5l-.2.1-.1.2v.2h-1l.1-.5.3-.4.4-.2.5-.1.6.1.5.2c.2.1.2.2.3.4l.1.5v.3l-.1.3-.2.2-.3.2.5.4.2.6-.1.5-.3.4-.5.2-.6.1-.5-.1-.5-.2c-.2-.1-.2-.2-.3-.4l-.1-.6h.8v.2l.1.2.2.1h.5l.2-.1.1-.2v-.5l-.1-.2-.2-.1h-.6v-.7zm5.7.7l-.1.8-.3.6s-.3.3-.5.3l-.6.1-.6-.1-.5-.3c-.2-.1-.2-.3-.3-.6l-.1-.8v-.7l.1-.8.3-.6s.3-.3.5-.3l.6-.1.6.1.5.3c.2.1.2.3.3.6l.1.8v.7zm-.9-.8v-.5l-.1-.3-.2-.2-.3-.1-.3.1-.2.2-.1.3v2l.1.3.2.2.3.1.3-.1.2-.2.1-.3v-1.5zM4 13c0 4.4 3.6 8 8 8s8-3.6 8-8h-2c0 3.3-2.7 6-6 6s-6-2.7-6-6 2.7-6 6-6v4l5-5-5-5v4a8 8 0 00-8 8z"/></svg>