<svg xmlns="http://www.w3.org/2000/svg" viewBox="0 0 24 24"><path d="M20 5h-9.1L10 2H4a2 2 0 00-2 2v13c0 1.1.9 2 2 2h7l1 3h8a2 2 0 002-2V7a2 2 0 00-2-2zM7.2 14.6a4 4 0 010-8.2c1 0 2 .4 2.7 1v.1L8.9 8.7h-.1c-.3-.3-.8-.6-1.5-.6-1.3 0-2.4 1-2.4 2.4s1 2.4 2.4 2.4c1.3 0 2-.9 2-1.4H7.2V9.9h4v.7c0 2.3-1.6 4-4 4zm6-1.7c.3.6.7 1.2 1.2 1.7l-.6.5-.6-2.2zm.8-.8h-1l-.3-1h4s-.4 1.3-1.6 2.7c-.5-.6-.9-1.2-1.1-1.7zm7 7.9c0 .6-.5 1-1 1h-7l2-2-.8-2.8 1-.9 2.6 2.7.7-.7-2.7-2.7c1-1 1.6-2.3 2-3.5H19v-1h-3.6V9h-1v1h-2l-1.2-4H20c.6 0 1 .5 1 1v13z"/></svg>