<svg xmlns="http://www.w3.org/2000/svg" viewBox="0 0 24 24"><path d="M12 2a10 10 0 100 20 10 10 0 000-20zm7 6h-3c-.3-1.3-.8-2.5-1.4-3.6A8 8 0 0118.9 8zm-7-4a14 14 0 012 4h-4a14 14 0 012-4zM4.3 14a8.2 8.2 0 010-4h3.3a16.5 16.5 0 000 4H4.3zm.8 2h3c.3 1.3.7 2.5 1.3 3.6A8 8 0 015.1 16zm3-8H5a8 8 0 014.3-3.6C8.8 5.5 8.4 6.7 8 8zM12 20a14 14 0 01-2-4h4a14 14 0 01-2 4zm2.3-6H9.7a14.7 14.7 0 010-4h4.6a14.6 14.6 0 010 4zm.3 5.6c.6-1.2 1-2.4 1.4-3.6h3a8 8 0 01-4.4 3.6zm1.8-5.6a16.5 16.5 0 000-4h3.3a8.2 8.2 0 010 4h-3.3z"/></svg>