<svg xmlns="http://www.w3.org/2000/svg" viewBox="0 0 24 24"><defs/><path d="M17 5c.8 0 1.5-.7 1.5-1.5 0-1-1.5-2.7-1.5-2.7s-1.5 1.7-1.5 2.7c0 .8.7 1.5 1.5 1.5zm-5 0c.8 0 1.5-.7 1.5-1.5 0-1-1.5-2.7-1.5-2.7s-1.5 1.7-1.5 2.7c0 .8.7 1.5 1.5 1.5zM7 5c.8 0 1.5-.7 1.5-1.5C8.5 2.5 7 .8 7 .8S5.5 2.5 5.5 3.5C5.5 4.3 6.2 5 7 5zm12 3c-.3-.6-.8-1-1.5-1h-11c-.7 0-1.2.4-1.4 1L3 14v8c0 .6.5 1 1 1h1c.6 0 1-.5 1-1v-1h12v1c0 .6.5 1 1 1h1c.6 0 1-.5 1-1v-8l-2-6zM6.4 18a1.5 1.5 0 110-3 1.5 1.5 0 010 3zm11 0a1.5 1.5 0 110-3 1.5 1.5 0 010 3zM5 13l1.5-4.5h11L19 13H5z"/></svg>