<svg xmlns="http://www.w3.org/2000/svg" viewBox="0 0 576 512"><path d="M576 255c-38 0-44 0-54 5v-5c-46 0-54-1-65 6v-6h-79v5c-11-6-21-5-75-5v6c-7-4-15-6-25-6h-58l-15 18-16-18h-83v93h82l16-18 16 18h49v-23c11 0 24 0 34-6v29h39l1-26 9 1v25c153 0 146 1 157-5v5c34 0 54 2 67-6v90c0 27-21 48-48 48H48c-26 0-48-21-48-48V228h27l6-15h19l7 15h53v-11l5 11h29l5-11v11h136v-25h9l1 25h66v-9c8 6 18 9 30 9h27l6-15h19l7 15h52v-22l14 22h41v-92h-40v19l-11-19h-43v21l-9-21h-62c-13 0-23 3-31 9v-9h-40v5c-11-6-21-5-64-5H144l-12 30-14-30H72v21l-9-21H23L0 190V80c0-26 21-48 48-48h480c26 0 48 22 48 48v175zm-187-80l-1 7 1 8 4 1 7-17h-3l-8 1zm-20 131c10 3 12 9 12 18l-1 14h-16v-12c0-11-4-13-15-13h-18v25h-16v-69h39c13 0 27 2 27 18 0 8-4 16-12 19zm-6-16c0-6-5-7-11-7h-20v16h20c6 0 11-2 11-9zm182-7h30v-14h-33c-13 0-24 6-24 20 0 33 43 13 43 28 0 5-4 6-8 6h-32v15h32c8 0 17-2 22-9v-26c-10-14-39-1-39-13 0-6 4-7 9-7zm-99 0v-14h-56v69h56v-14l-39-1v-13h38v-15h-38v-12h39zm42 40h-32v15h32c15 0 26-6 26-22 0-33-43-11-43-26 0-6 5-7 9-7h31v-14h-34c-12 0-23 6-23 20 0 33 43 13 43 28 0 5-5 6-9 6zm-78-159c-18 0-33-4-33 20 0 12 2 20 16 20h7l24-55h24l28 66v-66h26l29 49v-49h17v69h-24l-31-51v51h-34l-6-15h-35l-6 15h-19c-23 0-33-11-33-34s10-35 34-35h16v15zm14 25h23l-11-28-12 28zm-73-40h-16v70h17v-70zm-38 38c10 3 11 9 11 18v13h-16c-1-14 3-25-15-25h-18v25h-16v-69h39c13 0 27 2 27 19 0 8-4 16-12 19zm-6-16c0-6-6-7-11-7h-21v15h21c5 0 11-1 11-8zm-60-7v-15h-55v70h55v-15h-39v-14h38v-14h-38v-12h39zm-84 55v-55l-24 55h-15l-24-55v55H66l-6-16H25l-6 16H1l30-70h24l28 66v-66h27l22 47 20-47h27v70h-16zM54 189l-12-28-11 28h23zm253 102c0 28-31 24-49 24l-1 23h-32l-20-23-21 23h-66v-69h67l20 22 21-22h53c16 0 28 5 28 22zm-113 12l-18-20h-41v12h36v15h-36v13h40l19-20zm47-27l-25 27 25 28v-55zm48 15c0-6-4-8-10-8h-21v18h21c6 0 10-3 10-10z"/></svg>