<svg xmlns="http://www.w3.org/2000/svg" viewBox="0 0 576 512"><path d="M186 258c0 12-9 22-22 22-9 0-16-6-16-15 0-13 10-22 22-22 9 0 16 5 16 15zM81 210h-5c-2 0-3 1-3 2l-5 27h8c12 0 20-2 22-14 2-14-6-15-17-15zm284 0h-5c-2 0-3 1-3 2l-4 27h8c13 0 22-3 22-18 0-11-10-11-18-11zM576 80v352c0 27-21 48-48 48H48c-26 0-48-21-48-48V80c0-26 22-48 48-48h480c27 0 48 22 48 48zM128 215c0-21-16-28-34-28H54c-3 0-5 2-6 5L32 294c0 2 1 4 3 4h19c3 0 5-3 6-6l4-26c1-7 13-5 18-5 29 0 46-17 46-46zm85 9h-19c-4 0-4 6-5 8-5-8-14-10-23-10-25 0-44 22-44 46 0 19 13 32 32 32 9 0 20-5 27-12l-1 6c0 2 1 4 3 4h17c3 0 5-3 6-6l10-64c0-2-2-4-4-4zm40 98l64-92v-2c0-2-1-4-3-4h-19c-2 0-4 1-5 3l-26 39-11-38c-1-2-3-4-6-4h-18c-2 0-4 2-4 4l22 62c-3 4-21 29-21 32l3 3h20l4-3zm159-107c0-21-16-28-34-28h-40c-3 0-5 2-6 5l-16 102c0 2 2 4 3 4h21c2 0 3-1 4-3l4-29c1-7 14-5 18-5 29 0 46-17 46-46zm85 9h-19c-4 0-4 6-5 8-5-8-14-10-24-10-24 0-43 22-43 46 0 19 13 32 32 32 9 0 21-5 27-12l-1 6c0 2 1 4 3 4h17c3 0 5-3 6-6l10-64c0-2-2-4-4-4zm47-33c0-2-1-4-3-4h-19l-3 3-16 104v1c0 1 1 3 3 3h17c2 0 5-3 5-6l16-101zm-90 52c-12 0-22 9-22 22 0 9 7 15 17 15 12 0 21-9 21-22 0-10-7-15-16-15z"/></svg>