<svg xmlns="http://www.w3.org/2000/svg" viewBox="0 0 576 512"><path d="M397 257c0 19-9 33-22 33-8 0-13-3-17-7v-53c4-4 9-7 17-7 13 0 22 15 22 33zM576 80v352c0 27-21 48-48 48H48c-26 0-48-21-48-48V80c0-26 22-48 48-48h480c27 0 48 22 48 48zM122 281c0-42-54-35-54-51 0-5 4-7 12-7 11 0 24 3 35 9v-34c-12-4-23-6-35-6-29 0-48 15-48 40 0 39 54 33 54 50 0 7-6 9-14 9-11 0-27-5-39-12v34c14 6 27 8 39 8 30 0 50-14 50-40zm69-87h-27v-31l-35 8v114c0 21 16 36 37 36 12 0 20-2 25-4v-29c-4 1-27 8-27-13v-50h27v-31zm74 0c-5-1-21-5-30 11l-2-11h-31v125h36v-85c8-11 23-9 27-7v-33zm44 0h-36v125h36V194zm0-47l-36 8v28l36-7v-29zm123 109c0-42-24-64-49-64-14 0-23 7-27 11l-2-9h-32v166l36-7v-41c5 4 13 9 25 9 26 0 49-20 49-65zm112 1c0-36-18-65-51-65-34 0-55 29-55 65 0 43 25 64 59 64 17 0 30-4 40-9v-29c-10 5-21 8-35 8s-26-5-28-21h70v-13zm-52-36c-9 0-18 7-18 23h36c0-16-9-23-18-23z"/></svg>