<svg xmlns="http://www.w3.org/2000/svg" viewBox="0 0 576 512"><path d="M470 231l9 45h-33l16-43 5-15 3 13zM576 80v352c0 27-21 48-48 48H48c-26 0-48-21-48-48V80c0-26 22-48 48-48h480c27 0 48 22 48 48zM153 331l63-155h-43l-39 106-4-21-14-72c-3-10-10-13-19-13H33l-1 3c16 4 30 10 42 17l36 135h43zm94 0l25-155h-40l-25 155h40zm140-50c0-18-11-32-34-43-14-7-23-12-23-19 1-7 8-13 24-13 13-1 22 2 29 6l4 1 6-33c-8-3-21-7-36-7-40 0-68 21-68 51-1 23 20 35 35 43 15 7 21 12 21 19 0 10-13 15-24 15-16 0-25-2-38-8l-5-3-6 35c9 5 27 8 45 9 42 0 70-21 70-53zm141 50l-32-155h-31c-10 0-17 3-21 13l-60 142h42l8-23h52l5 23h37z"/></svg>