<svg xmlns="http://www.w3.org/2000/svg" viewBox="0 0 512 512"><path d="M256 8a248 248 0 1 0 1 497 248 248 0 0 0-1-497zm164 114c29 36 47 82 48 132-7-1-77-15-148-6-5-15-11-27-18-42 78-32 114-78 118-84zm-24-24c-3 5-35 48-111 76-34-63-73-116-79-124 68-16 138 2 190 48zM166 65c6 7 43 60 78 122-99 26-186 26-195 26 13-66 58-120 117-148zM44 256v-6c10 0 112 1 218-30l17 36c-76 21-146 83-180 142-34-38-55-87-55-142zm82 167c22-45 82-103 168-132 29 77 42 142 45 160-68 29-150 21-213-28zm248 9c-2-13-13-75-41-151 67-11 125 7 132 9-9 59-43 110-91 142z"/></svg>