<svg xmlns="http://www.w3.org/2000/svg" viewBox="0 0 512 512"><path d="M440.3 203.5c-15 0-28.2 6.2-37.9 15.9-35.7-24.7-83.8-40.6-137.1-42.3L293 52.3l88.2 19.8a39.3 39.3 0 0 0 39.2 39.2 39.8 39.8 0 0 0 0-79.4 40.3 40.3 0 0 0-35.3 22l-97.4-21.6c-4.9-1.3-9.7 2.2-11 7.1L246.3 177c-52.9 2.2-100.5 18.1-136.3 42.8a53.1 53.1 0 0 0-38.4-16.3c-55.6 0-73.8 74.6-22.9 100.1a112 112 0 0 0-2.6 24.7c0 83.8 94.4 151.7 210.3 151.7 116.4 0 210.8-67.9 210.8-151.7 0-8.4-.9-17.2-3.1-25.1 49.9-25.6 31.5-99.7-23.8-99.7zM129.4 308.9a39.5 39.5 0 1 1 79-.3 39.5 39.5 0 0 1-79 .3zm214.3 93.5c-36.4 36.4-139.1 36.4-175.5 0-4-3.5-4-9.7 0-13.7a9.6 9.6 0 0 1 13.2 0c27.8 28.5 120 29 149 0a9.6 9.6 0 0 1 13.2 0c4.1 4 4.1 10.2.1 13.7zm-.8-54.2a39.4 39.4 0 1 1 39.7-39.2 39.6 39.6 0 0 1-39.7 39.2z"/></svg>