<svg xmlns="http://www.w3.org/2000/svg" viewBox="0 0 512 512"><path d="M249 211c0 32-27 58-61 58s-62-26-62-58 28-57 62-57 61 25 61 57zm255 50c-19 23-53 51-107 72 57 192-137 223-134 124v-93l-14-3v96c3 99-191 68-134-124-54-21-88-49-107-72-9-13 1-28 16-17l7 4V50C31 22 51 0 77 0h359c25 0 46 22 46 50v198l6-4c15-11 25 4 16 17zM457 72c0-33-10-45-41-45H99c-32 0-41 10-41 45v193c68 35 126 29 157 28 14-1 22 2 28 7 1 2 10 10 20 17 1-15 10-25 34-24 32 1 91 7 160-30V72zm-126 82c-34 0-62 25-62 57s28 58 62 58 62-26 62-58-28-57-62-57z"/></svg>