<svg xmlns="http://www.w3.org/2000/svg" viewBox="0 0 640 512"><path d="M111 256l6 65-6 69c0 2-2 4-4 4s-4-2-4-4l-6-69 6-65c0-2 2-4 4-4s4 2 4 4zm22-45c-3 0-5 2-5 5l-5 105 5 69c0 2 2 5 5 5 2 0 5-3 5-5l5-69-5-105c0-3-3-5-5-5zm25-24c-3 0-5 2-5 5l-5 130 5 68c0 3 2 5 5 5s6-2 6-5l5-68-5-130c0-3-3-5-6-5zM7 283c-1 0-2 1-2 3l-5 35 5 35c0 2 1 3 2 3l3-3 5-35-5-35c-1-2-1-3-3-3zm24-22c-2 0-3 1-3 3l-6 57 6 56c0 2 1 3 3 3s2-1 3-2l7-57-7-57-3-3zm25-11c-2 0-3 1-3 3l-6 68 6 66c0 2 1 3 3 3s3-1 3-3l7-66-7-68c0-2-1-3-3-3zm25-2c-2 0-3 1-3 3l-6 70 6 68c0 2 1 4 3 4s4-2 4-4l7-68-7-70c0-2-2-3-4-3zm242-111l-4-2-6 2c-2 2-3 5-3 7v1l-4 177 2 32 2 32c0 4 4 8 9 8s8-4 8-8l4-65-4-177c0-3-2-6-4-7zm-27 15l-4-1-5 1c-2 2-3 4-3 7l-1 2-2 160 3 66 1 5c2 2 4 3 7 3l5-2 3-6v-7l3-58-3-163c0-3-2-6-4-7zm-111 23c-3 0-6 2-6 6l-4 140 4 68c0 3 3 5 6 5s6-2 6-5l5-68-5-140c0-4-3-6-6-6zm376 62c-10 0-21 3-30 7a139 139 0 0 0-189-117c-6 2-8 4-8 9v249c0 5 4 9 9 10h218a78 78 0 1 0 0-158zm-296-60c-5 0-8 3-8 8l-3 137 3 65c0 4 3 8 8 8 4 0 7-4 7-8l4-65-4-137c0-5-3-8-7-8zm-54-8c-3 0-6 3-6 7l-4 145 4 67c0 4 3 7 6 7 4 0 6-3 7-7l4-67-4-145c-1-4-3-7-7-7zm27 4c-4 0-7 3-7 7l-4 141 4 67c0 4 3 7 7 7s7-3 7-7l4-67-4-141c0-4-3-7-7-7z"/></svg>