<svg xmlns="http://www.w3.org/2000/svg" viewBox="0 0 576 512"><path d="M166.4 280.52a23.97 23.97 0 1 1-47.93 0 23.97 23.97 0 0 1 47.93 0zm264.96-23.95a23.96 23.96 0 1 0 0 47.9 23.96 23.96 0 0 0 0-47.9zm89.39 139.49c-62.67 49.1-153.28 38.1-202.38-24.56l-30.98 46.32-30.68-45.94c-48.28 60.4-135.62 71.9-197.89 26.06-64.05-47.16-77.75-137.32-30.6-201.38A186.76 186.76 0 0 0 0 139.42l90.29-.05a358.48 358.48 0 0 1 197.06-54.03 350.38 350.38 0 0 1 192.18 53.34l96.22.08a185.71 185.71 0 0 0-28.35 57.65c46.8 62.74 34.96 151.37-26.65 199.64zm-261.38-114.3c-.01-63.56-51.54-115.07-115.1-115.07-63.55.01-115.07 51.54-115.06 115.1 0 63.55 51.53 115.07 115.09 115.06 63.51-.07 114.98-51.54 115.07-115.05v-.04zm28.59-10.45a143.68 143.68 0 0 1 139.12-133.03 339.15 339.15 0 0 0-139.73-27.8 356.31 356.31 0 0 0-140.16 27.25c74.34 1.58 135.3 59.42 140.77 133.58zm251.7-28.77c-21.99-59.63-88.16-90.15-147.8-68.16-59.63 22-90.14 88.16-68.15 147.8v.03c22.04 59.6 88.2 90.09 147.83 68.11 59.61-22 90.11-88.16 68.12-147.78zM213.62 280.5v.12a71.21 71.21 0 1 1-71.1-71.31 71.32 71.32 0 0 1 71.1 71.2zm-24.5 0v-.08a46.69 46.69 0 1 0-46.6 46.78 46.8 46.8 0 0 0 46.6-46.7zm313.42 0v.05a71.2 71.2 0 1 1-71.18-71.24 71.3 71.3 0 0 1 71.18 71.2zm-24.5 0a46.69 46.69 0 1 0-46.68 46.7 46.75 46.75 0 0 0 46.67-46.7z"/></svg>