<svg xmlns="http://www.w3.org/2000/svg" viewBox="0 0 512 512"><path d="M256 8a248 248 0 1 0 1 497 248 248 0 0 0-1-497zM33 256c0-32 7-63 19-91l107 292A223 223 0 0 1 33 256zm223 223c-22 0-43-3-63-9l67-195 68 188 2 3c-23 9-48 13-74 13zm31-327l25-3c12-1 11-19-1-18 0 0-36 3-60 3-21 0-58-3-58-3-12-1-14 18-2 18l24 3 34 95-48 146-82-241 26-3c12-1 10-19-2-18 0 0-36 3-59 3H70a223 223 0 0 1 337-42l-3-1c-22 0-38 19-38 40 0 18 11 34 22 52 9 15 19 34 19 62 0 19-8 41-17 72l-23 74-80-240zm81 297l68-197a211 211 0 0 0 16-103 222 222 0 0 1-84 300z"/></svg>