<svg width="87" height="84" viewBox="0 0 87 84" fill="none" xmlns="http://www.w3.org/2000/svg">
<path d="M9.94612 76.0608V38.1283C9.94612 34.9512 12.5492 32.3518 15.7307 32.3518H18.5265C18.0927 32.2555 17.6588 32.2073 17.1768 32.2073H8.01794C4.83644 32.2073 2.2334 34.8068 2.2334 37.9839V75.9163C2.2334 79.0934 4.83644 81.6929 8.01794 81.6929H14.3809C11.8743 81.0671 9.94612 78.7565 9.94612 76.0608Z" fill="#29BEBE"/>
<path d="M17.225 81.6929H8.01794C4.83644 81.6929 2.2334 79.0934 2.2334 75.9163V37.9839C2.2334 34.8068 4.83644 32.2073 8.01794 32.2073H17.225C20.4065 32.2073 23.0095 34.8068 23.0095 37.9839V75.9163C23.0095 79.0934 20.4065 81.6929 17.225 81.6929Z" stroke="#047E97" stroke-width="4" stroke-miterlimit="10" stroke-linecap="round" stroke-linejoin="round"/>
<path d="M23.6362 35.6733C23.6362 35.6733 46.3406 30.1856 42.6288 14.6852C39.3509 1.06228 51.6431 -0.0448858 55.9815 8.23479C60.3199 16.5145 55.4994 35.6733 55.4994 35.6733H76.854" stroke="#047E97" stroke-width="4" stroke-miterlimit="10" stroke-linecap="round" stroke-linejoin="round"/>
<path d="M65.2373 47.2263H78.59L79.313 46.8894C83.796 44.8194 83.796 38.032 79.313 36.0102L78.59 35.6733H65.2373" stroke="#047E97" stroke-width="4" stroke-miterlimit="10" stroke-linecap="round" stroke-linejoin="round"/>
<path d="M65.2373 58.4905H80.3253L81.1448 58.1535C86.2063 56.1799 86.2063 49.5369 81.1448 47.5633L80.3253 47.2263H65.2373" stroke="#047E97" stroke-width="4" stroke-miterlimit="10" stroke-linecap="round" stroke-linejoin="round"/>
<path d="M65.2373 69.5622H77.3366L78.0115 69.2252C82.1089 67.2516 82.1089 60.6086 78.0115 58.6349L77.3366 58.298H65.2373" stroke="#047E97" stroke-width="4" stroke-miterlimit="10" stroke-linecap="round" stroke-linejoin="round"/>
<path d="M65.8152 69.5622H73.0941L73.7689 69.8992C77.8663 71.8728 77.8663 78.3714 73.7689 80.2969L73.0941 80.6339H65.8152H40.7488C40.7488 80.6339 34.193 81.356 28.9869 77.6494C23.7808 73.9428 23.6362 75.0981 23.6362 75.0981" stroke="#047E97" stroke-width="4" stroke-miterlimit="10" stroke-linecap="round" stroke-linejoin="round"/>
</svg>
