<svg width="82" height="90" viewBox="0 0 82 90" fill="none" xmlns="http://www.w3.org/2000/svg">
<path d="M76.3145 21.0621L72.8159 17.8925L37.9334 56.2883L41.432 59.458L76.3145 21.0621Z" fill="#29BEBE"/>
<path d="M14.5088 2.1662V4.38053C14.5088 6.54673 16.3888 8.32782 18.7026 8.32782H35.6706C37.9844 8.32782 39.8644 6.54673 39.8644 4.38053V2.50316" fill="white"/>
<path d="M17.256 82.3154V7.46133C17.256 4.28425 20.4857 1.68481 24.4384 1.68481H9.68784C5.73507 1.68481 2.50537 4.28425 2.50537 7.46133V82.3154C2.50537 85.4925 5.73507 88.0919 9.68784 88.0919H24.4384C20.4857 88.0919 17.256 85.4925 17.256 82.3154Z" fill="#29BEBE"/>
<path d="M35.1411 67.5372L45.0712 64.3601L37.3585 57.332L35.1411 67.5372Z" stroke="#047E97" stroke-width="3.5" stroke-miterlimit="10" stroke-linecap="round" stroke-linejoin="round"/>
<path d="M78.9096 27.0534L45.0218 64.3601L37.3091 57.3801L71.1969 20.0734C72.643 18.4849 75.1014 18.3405 76.7404 19.7846L78.6686 21.5176C80.2593 23.0098 80.4039 25.4649 78.9096 27.0534Z" stroke="#047E97" stroke-width="3.5" stroke-miterlimit="10" stroke-linecap="round" stroke-linejoin="round"/>
<path d="M50.2285 58.6798V82.3154C50.2285 84.5779 48.3967 86.4071 46.1311 86.4071H8.29055C6.02494 86.4071 4.19316 84.5779 4.19316 82.3154V7.46134C4.19316 5.19887 6.02494 3.36964 8.29055 3.36964H46.1311C48.3967 3.36964 50.2285 5.19887 50.2285 7.46134V43.1795L53.6028 39.4729V7.46134C53.6028 3.36964 50.2767 0 46.1311 0H8.29055C4.19316 0 0.818848 3.36964 0.818848 7.46134V82.3154C0.818848 86.4071 4.19316 89.7768 8.29055 89.7768H46.1311C50.2285 89.7768 53.6028 86.4071 53.6028 82.3154V54.9732L50.2285 58.6798Z" fill="#047E97"/>
<path d="M45.2149 88.0919H8.09745C5.01236 88.0919 2.45752 85.5888 2.45752 82.4598V77.3091H50.8066V82.4598C50.8549 85.5406 48.3482 88.0919 45.2149 88.0919Z" fill="#047E97"/>
<path d="M8.67509 2.45502H45.7926C48.8777 2.45502 51.4325 4.95818 51.4325 8.08712V10.494H3.03516V8.08712C3.03516 4.95818 5.54179 2.45502 8.67509 2.45502Z" fill="#047E97"/>
</svg>
