<svg width="118" height="40" viewBox="0 0 118 40" fill="none" xmlns="http://www.w3.org/2000/svg">
<path d="M58.4411 26.9745C56.5932 24.9629 55.7022 22.4238 55.7022 19.4229C55.7022 16.4221 56.5932 13.883 58.4411 11.8714C60.2891 9.85987 62.5 8.83761 65.2389 8.83761C67.3508 8.83761 69.1658 9.46416 70.7827 10.7173V9.36523H76.5575V30.2391C76.5575 33.042 75.5675 35.3834 73.6206 37.197C71.7067 39.0767 69.2318 40 66.3279 40C64.0509 40 61.939 39.4064 60.0581 38.2193C58.2101 36.9992 56.9892 35.4823 56.3622 33.6686L62.038 32.3166C62.698 33.6026 64.3479 34.5589 66.1629 34.5589C68.8028 34.5589 70.7827 32.6793 70.7827 30.305V28.0627C69.1658 29.3158 67.3508 29.9423 65.2389 29.9423C62.5 29.9753 60.2561 28.986 58.4411 26.9745ZM66.1959 24.2374C68.7038 24.2374 70.6507 22.127 70.6507 19.4559C70.6507 16.7189 68.6708 14.5425 66.1959 14.5425C63.6879 14.5425 61.741 16.7189 61.741 19.4559C61.741 22.1599 63.6879 24.2374 66.1959 24.2374Z" fill="#5E2D91"/>
<path d="M84.1802 0H78.3723V29.4806H84.1802V0Z" fill="#5E2D91"/>
<path d="M91.7367 21.5334C92.3967 23.6438 94.2776 25.0618 96.6535 25.0618C98.3035 25.0618 99.5904 24.4353 100.646 23.2152L106.223 24.5012C104.441 27.8648 100.844 29.9423 96.5545 29.9423C93.4196 29.9423 90.8457 28.953 88.7338 26.9414C86.6219 24.9299 85.5989 22.3907 85.5989 19.3899C85.5989 16.3891 86.6219 13.8499 88.6348 11.8384C90.6807 9.82687 93.2546 8.80461 96.2245 8.80461C99.2274 8.80461 101.768 9.82687 103.781 11.8384C105.827 13.8499 106.85 16.3891 106.85 19.3899C106.85 20.1814 106.817 20.9068 106.685 21.5004H91.7367V21.5334ZM101.009 17.1805C100.349 15.169 98.4685 13.784 96.3235 13.784C94.3106 13.784 92.4297 15.169 91.7697 17.1805H101.009Z" fill="#5E2D91"/>
<path d="M52.0063 11.08C50.5543 9.62904 48.7724 8.87059 46.5945 8.83761C46.5945 8.83761 46.5945 8.83761 46.5615 8.83761C46.5615 8.83761 46.5615 8.83761 46.5285 8.83761C46.4625 8.83761 46.4295 8.83761 46.3635 8.83761C46.1325 8.83761 45.9345 8.83761 45.7365 8.87059C45.7035 8.87059 45.7035 8.87059 45.6705 8.87059C43.9546 9.03547 42.4366 9.62904 41.0507 10.6843V9.33226H35.3088H35.2758V29.4477H41.0837V18.0709C41.0837 15.8945 42.7006 14.2127 44.7795 14.2127C46.8585 14.2127 48.4424 15.8615 48.4424 18.0709V29.4477H54.2502V16.554C54.2502 14.3776 53.4912 12.5309 52.0063 11.08Z" fill="#5E2D91"/>
<path d="M82.9593 33.075V34.427H79.7914V35.6142H82.4643V36.9662H79.7914V39.5053H78.4055V33.075H82.9593Z" fill="#ED2891"/>
<path d="M85.4672 33.075H84.0812V39.5053H85.4672V33.075Z" fill="#ED2891"/>
<path d="M86.6552 39.5053V33.075H87.9091L90.813 37.0321V33.075H92.133V39.5053H90.912L88.0081 35.6142V39.5053H86.6552Z" fill="#ED2891"/>
<path d="M92.8259 39.5053L95.3998 33.075H96.5548L99.1287 39.5053H97.6768L97.2478 38.4171H94.6739L94.2449 39.5053H92.8259ZM95.9608 35.1525L95.2018 37.131H96.7528L95.9608 35.1525Z" fill="#ED2891"/>
<path d="M99.7887 39.5053V33.075H101.01L103.914 37.0321V33.075H105.267V39.5053H104.013L101.109 35.6142V39.5053H99.7887Z" fill="#ED2891"/>
<path d="M111.107 33.4707C111.635 33.8004 112.031 34.2621 112.262 34.8227L110.909 35.3503C110.612 34.7567 110.051 34.361 109.358 34.361C108.863 34.361 108.434 34.5589 108.104 34.9216C107.774 35.2843 107.609 35.746 107.609 36.3066C107.609 36.8672 107.774 37.3289 108.104 37.6916C108.434 38.0543 108.863 38.2522 109.358 38.2522C110.051 38.2522 110.612 37.8895 110.909 37.2629L112.262 37.7905C111.998 38.3511 111.602 38.8128 111.107 39.1425C110.579 39.4723 110.018 39.6372 109.358 39.6372C108.434 39.6372 107.675 39.3074 107.081 38.6809C106.487 38.0543 106.157 37.2629 106.157 36.3066C106.157 35.3503 106.454 34.5589 107.081 33.9323C107.708 33.3058 108.467 32.976 109.358 32.976C110.018 32.976 110.579 33.1409 111.107 33.4707Z" fill="#ED2891"/>
<path d="M117.707 33.075V34.427H114.506V35.6142H117.179V36.9332H114.506V38.1863H117.74V39.5053H113.12V33.075H117.707Z" fill="#ED2891"/>
<path d="M34.0547 29.4806H23.4951L19.6012 17.906L24.881 2.27533L34.0547 29.4806Z" fill="#5E2D91"/>
<path d="M13.5295 0H24.0892L10.5596 40H0L13.5295 0Z" fill="#ED2891"/>
<path d="M24.0892 0H13.5295L18.8093 15.5977L24.0892 0Z" fill="#A22990"/>
<path d="M17.0604 20.742L0 40H10.5596L17.0604 20.742Z" fill="#C62990"/>
</svg>
