<?xml version="1.0" encoding="UTF-8"?> <!-- Generator: Adobe Illustrator 24.1.2, SVG Export Plug-In . SVG Version: 6.00 Build 0) --> <svg xmlns="http://www.w3.org/2000/svg" xmlns:xlink="http://www.w3.org/1999/xlink" version="1.1" id="Layer_1" x="0px" y="0px" viewBox="0 0 129.3 39.3" style="enable-background:new 0 0 129.3 39.3;" xml:space="preserve"> <style type="text/css"> .st0{fill-rule:evenodd;clip-rule:evenodd;fill:#282864;} .st1{fill:#FFFFFF;} .st2{fill:#282864;} .st3{fill:#008AC3;} </style> <g> <polygon class="st0" points="15.8,15.6 15.3,18 19,18 19.5,15.6 "></polygon> <g> <path class="st1" d="M119.7,10.9h-16.8l-4.7,21.7c2.6,1.7,5.7,2.8,9,3.2l1.6-7.4h0l1.2-5.7h1.1l1.5-6.8l6.1,0.1L119.7,10.9z"></path> <path class="st2" d="M14.9,14.1H4.5L0.4,32.7h3.9l1.6-7.5h6.4l0.6-2.4H6.5l1.4-6.4h6.5L14.9,14.1z M23.5,19.4h-3.6l-2.9,13.2h3.7 l0.9-4.4c0.8-3.8,3.7-6.8,5.5-6.8c1,0,1.8,0.4,1.7,1.8c0,0.5-0.1,1.1-0.3,1.8l-1.8,7.6h3.7l1.8-7.6c0.3-1.2,0.4-2.1,0.4-2.9 c0-2.2-1.2-3-3.4-3c-2,0-4,0.6-6.3,2.9l-0.1,0L23.5,19.4z M48.5,19.4h-3.7l-0.3,0.9c-0.7-0.8-2.2-1.2-3.5-1.2 c-4.8,0-8.5,4.7-8.5,9c0,2.9,1.7,4.9,4.5,4.9c2.3,0,4.2-1.1,4.7-1.6l0.7-0.7l0.1,0l-0.5,2h3.7L48.5,19.4z M44.2,22.3 c-0.7,6.8-3.5,8.4-5.3,8.4c-1.4,0-2.4-1.1-2.4-2.9c0-4.7,3.2-6.5,4.8-6.5C42.7,21.2,43.1,21.4,44.2,22.3 M54,19.4h-3.6l-2.9,13.2 h3.7l0.9-4.4c0.8-3.8,3.7-6.8,5.5-6.8c1,0,1.8,0.4,1.7,1.8c0,0.5-0.1,1.1-0.3,1.8l-1.8,7.6h3.7l1.8-7.6c0.3-1.2,0.4-2.1,0.4-2.9 c0-2.2-1.2-3-3.4-3c-2,0-4,0.6-6.3,2.9l-0.1,0L54,19.4z M73,29.7c-0.8,0.4-1.4,0.9-3.1,0.9c-2,0-3.2-1.6-3.2-3.5 c0-3.3,2.1-5.6,4.6-5.6c1.3,0,2.1,0.5,2.7,0.8l1.5-1.6c-1-1-2.4-1.5-4.1-1.5c-5.4,0-8.7,4.2-8.7,8c0,3.4,2.5,5.8,6.5,5.8 c1.7,0,3.1-0.4,4.8-1.5L73,29.7z M84.4,29.4c-1.4,0.9-2.9,1.3-3.9,1.2c-2.7,0-2.8-2.4-2.6-3.4c3.4-0.1,9.5-1.9,9.5-5.4 c0-1.9-2.2-2.8-3.9-2.8c-6.1,0-9.5,5-9.5,8.7c0,3.2,1.9,5.2,4.8,5.2c1.7,0,4.2-0.3,6.7-1.9L84.4,29.4z M78.3,25.3 c0.8-2.4,2.6-4.2,4.3-4.2c1,0,1.5,0.4,1.4,1.2C83.8,24,81.2,25.1,78.3,25.3"></path> <polygon class="st2" points="18.7,19.4 15,19.4 12.1,32.6 15.8,32.6 "></polygon> <g> <path class="st3" d="M109.8,36L109.8,36L109.8,36z"></path> <path class="st3" d="M109.9,3.3h-0.3c-10.5,0.1-18.9,7.4-18.9,16.3c0,5.3,2.9,10,7.5,13l4.7-21.6h16.8l-1.1,5.2h0l-4.1,19.3 c8.3-1.8,14.4-8.2,14.4-15.8C128.8,10.7,120.4,3.4,109.9,3.3z"></path> </g> <path class="st2" d="M118.6,15.9l-8,0l-6.7,5.7h5.5l-3,14.1c1.1,0.2,2.3,0.3,3.4,0.3c1.6,0,3.2-0.2,4.7-0.5L118.6,15.9z"></path> </g> </g> </svg> 