<svg id="Layer_1" data-name="Layer 1" xmlns="http://www.w3.org/2000/svg" viewBox="0 0 360.17 71.92"><defs><style>.cls-1{fill:#53bc81;fill-rule:evenodd;}.cls-2{fill:#264b65;}</style></defs><title>S1-Logo</title><path class="cls-1" d="M149.19,13.81c-10.06,0-17.95,5.89-17.95,21.34s6,21.82,19.6,21.82a25.78,25.78,0,0,0,13.66-3.71,1.49,1.49,0,0,0,.64-1.8l-2.37-6.37a1.47,1.47,0,0,0-1.85-.89,27.85,27.85,0,0,1-8.43,1.55c-4.2,0-5.63-1-6-5.57h18.18a1.49,1.49,0,0,0,1.49-1.49V37.27C166.16,20,161.2,13.81,149.19,13.81Zm-3.62,17.74c.15-6.75,1.44-8.64,4.07-8.64,2.78,0,3.62,3.61,3.62,8.64Z"/><path class="cls-1" d="M188.14,45.9a11.29,11.29,0,0,0,1.66-.11A1.48,1.48,0,0,1,191.48,47l1.12,6.77a1.48,1.48,0,0,1-.9,1.63A24,24,0,0,1,182.81,57c-6.91,0-11.56-2.59-11.56-12.08V24.72H169a1.49,1.49,0,0,1-1.49-1.49V16.32A1.49,1.49,0,0,1,169,14.83h2.23V7a1.48,1.48,0,0,1,1.24-1.47l11.74-1.94A1.49,1.49,0,0,1,186,5.05v9.78h3.3a1.23,1.23,0,0,1,1.23,1.23v7.43a1.23,1.23,0,0,1-1.23,1.23H186V43.08C186,45.28,186.56,45.9,188.14,45.9Z"/><path class="cls-1" d="M97.64,46.14A14.23,14.23,0,0,0,103.11,45a1.46,1.46,0,0,1,2,.77l2.26,5.66a1.49,1.49,0,0,1-.43,1.69A18.12,18.12,0,0,1,95.39,57C83,57,77.14,50.06,77.14,35.07c0-14.67,6.69-21.26,18.4-21.26a22,22,0,0,1,10.56,2.32,1.49,1.49,0,0,1,.85,1.35v6.58a1.49,1.49,0,0,1-1.48,1.49H98.76A.84.84,0,0,1,98,25L97,23.46a2.17,2.17,0,0,0-1.43-.55c-2.4,0-3.45,1.81-3.45,11.85C92.16,43.47,93.29,46.14,97.64,46.14Z"/><path class="cls-1" d="M56.39,13.81c-11.86,0-18,6.59-18,21.58S44.53,57,56.39,57s18-6.59,18-21.58S68.26,13.81,56.39,13.81Zm0,34.06c-2.4,0-3.54-2-3.54-12.48S54,22.91,56.39,22.91s3.55,2,3.55,12.48S58.8,47.87,56.39,47.87Z"/><path class="cls-1" d="M35.66,38.92c0,11.61-5.78,18-19.59,18A33.56,33.56,0,0,1,1.15,53.86a1.47,1.47,0,0,1-.78-1.32v-9.1A1.49,1.49,0,0,1,1.86,42H9.21a1.49,1.49,0,0,1,1.33.83l1.55,3.12a8.12,8.12,0,0,0,4,1c3.3,0,5-1,5-4.86,0-4-1.66-5.34-6.54-6.67C2.78,32.17,0,26.29,0,17.42,0,4.55,8,.24,18.69.24A34.76,34.76,0,0,1,32.05,2.81a1.46,1.46,0,0,1,.83,1.35v8.16a1.49,1.49,0,0,1-1.48,1.49H23.9A1.49,1.49,0,0,1,22.56,13l-1-2.07a8.07,8.07,0,0,0-3.46-.63c-2.17,0-3.9.94-3.9,4,0,2.75,1.58,4.16,6.38,5.5C31.46,22.83,35.66,27.39,35.66,38.92Z"/><path class="cls-1" d="M219.66,55.87c-3.27,11.38-6.61,14.77-18.65,16a1.53,1.53,0,0,1-1.63-1L196.82,63a1.19,1.19,0,0,1,1-1.53c5.56-.67,8.13-1.5,9.83-3.06a1.17,1.17,0,0,0-.8-2L205,56a1.17,1.17,0,0,1-1.13-.86l-8-29.43-1.82-.6a1.17,1.17,0,0,1-.8-1.11V16a1.17,1.17,0,0,1,1.17-1.17h16.24a1,1,0,0,1,1,1V24.1A1,1,0,0,1,211,25l-1.33.63s3.13,14.28,3.63,16.69a.4.4,0,0,0,.78,0l4.26-16.69L217,25a1,1,0,0,1-.65-.93V15.83a1,1,0,0,1,1-1h12.49A1.17,1.17,0,0,1,231,16v8a1.17,1.17,0,0,1-.8,1.11l-1.83.6Z"/><path class="cls-1" d="M128.83,46.44l-2-.45-.16.19V17.68a1.85,1.85,0,0,0-1.85-1.85H111.25a1.49,1.49,0,0,0-1.49,1.49v7.42a1.48,1.48,0,0,0,1,1.4l1.2.42V54.1A1.85,1.85,0,0,0,113.81,56h11.46v-.07h3.23A1.49,1.49,0,0,0,130,54.39v-6.5A1.49,1.49,0,0,0,128.83,46.44Z"/><path class="cls-2" d="M282.43,16.08V23.5a1.49,1.49,0,0,0,1,1.41l1.61.75V46l-1.45.32a1.5,1.5,0,0,0-1.16,1.45v6.51a1.49,1.49,0,0,0,1.49,1.48h14.35a1.48,1.48,0,0,0,1.48-1.48v-28a6.74,6.74,0,0,1,3.31-.94c1.5,0,2.48.86,2.48,2.9V54.23A1.48,1.48,0,0,0,307,55.71h15a1.48,1.48,0,0,0,1.48-1.48V47.72a1.49,1.49,0,0,0-1.16-1.45l-2-.44V25.58c0-8.63-4.06-12-10.59-12-5.25,0-8.33,2.6-11.41,5.34l-.77-3.18a1.49,1.49,0,0,0-1.45-1.13H283.92A1.49,1.49,0,0,0,282.43,16.08Z"/><path class="cls-2" d="M278.91,28.41C278.91,9.1,272,0,257.07,0s-21.85,9.1-21.85,28.41,6.9,28.32,21.85,28.32S278.91,47.71,278.91,28.41ZM257.07,10c4.5,0,5.48,4.56,5.48,18.37s-1,18.28-5.48,18.28-5.48-4.47-5.48-18.28S252.56,10,257.07,10Z"/><path class="cls-2" d="M358.51,53a1.51,1.51,0,0,0,.64-1.81l-2.37-6.37a1.47,1.47,0,0,0-1.85-.89,27.55,27.55,0,0,1-8.43,1.55c-4.2,0-5.63-1-6-5.57h18.18a1.49,1.49,0,0,0,1.49-1.49V37c0-17.27-5-23.47-17-23.47-10.06,0-17.95,5.89-17.95,21.35s6,21.81,19.6,21.81A25.85,25.85,0,0,0,358.51,53ZM339.58,31.31c.15-6.75,1.44-8.63,4.07-8.63,2.78,0,3.62,3.61,3.62,8.63Z"/></svg>