<svg width="241" height="44" viewBox="0 0 241 44" fill="none" xmlns="http://www.w3.org/2000/svg">
<path d="M22.1946 0C10.0696 0 0.229004 9.94394 0.229004 22.2861C0.229004 26.2052 1.22478 29.8903 2.98203 33.049C3.0406 31.9961 3.15775 31.0017 3.2749 29.9488C4.4464 19.8879 8.42951 8.54009 17.7429 3.50963C18.563 3.04168 19.8516 3.56812 18.8559 5.32293C17.5672 7.66268 16.63 10.5874 16.5129 13.3366C18.9144 12.6931 21.4332 12.8686 24.8305 14.0385C26.2363 14.5065 25.7677 13.2781 22.7218 12.1082C24.0105 8.77407 26.2949 6.08335 29.5165 4.62101C30.3951 4.21155 30.8052 4.91348 30.3951 6.20034C30.278 6.49281 29.5751 9.47599 29.3408 10.6459C28.5793 14.7404 28.2864 18.8935 28.2279 23.0465C30.9223 22.0522 33.1482 21.1163 34.6711 20.9993C35.6083 20.8823 37.6584 20.8238 37.6584 24.0994C37.6584 34.9793 25.7091 38.2549 20.6717 38.2549C18.973 38.2549 21.6089 39.6588 26.8806 39.3663L27.4664 43.8703C37.0727 41.4721 44.1603 32.698 44.1603 22.2861C44.1603 9.94394 34.3197 0 22.1946 0Z" fill="white"/>
<path d="M18.2693 18.7766C17.6836 18.7181 16.6878 19.4785 16.6292 20.4144C16.5707 21.4088 17.4493 22.2277 18.035 22.2862C18.6208 22.3447 19.2065 21.5843 19.2651 20.5899C19.3237 19.654 18.9137 18.8351 18.2693 18.7766Z" fill="white"/>
<path d="M23.6587 20.5899C23.7173 19.5955 23.3072 18.7766 22.6629 18.7766C22.0772 18.7181 21.0814 19.4785 21.0228 20.4144C20.9642 21.4088 21.8429 22.2277 22.4286 22.2862C23.0729 22.3447 23.6001 21.5843 23.6587 20.5899Z" fill="white"/>
<path d="M36.1935 25.211C36.545 24.743 36.4864 23.5146 35.7249 22.9297C34.9635 22.3448 33.792 22.5787 33.3819 23.1052C33.0305 23.5731 33.3234 24.4505 34.0848 25.094C34.9049 25.6204 35.8421 25.7374 36.1935 25.211Z" fill="white"/>
<path d="M55.6452 37.6243V24.3462H53.3022V20.7196H55.6452V18.7308C55.6452 16.6835 56.1724 15.2212 57.2268 14.3437C58.2811 13.4663 59.6869 13.0569 61.4442 13.0569H63.3186V16.8005H62.1471C61.3856 16.8005 60.8584 16.976 60.5655 17.2684C60.2727 17.5609 60.0969 18.0873 60.0969 18.7893V20.7781H63.7286V24.3462H60.0969V37.6243H55.6452Z" fill="white"/>
<path d="M69.0597 18.0891C68.2396 18.0891 67.5953 17.8551 67.0681 17.3871C66.5409 16.9192 66.3066 16.3342 66.3066 15.5738C66.3066 14.8134 66.5409 14.2285 67.0681 13.7605C67.5953 13.2926 68.2396 13.0586 69.0597 13.0586C69.8797 13.0586 70.524 13.2926 71.0512 13.7605C71.5784 14.2285 71.8127 14.8134 71.8127 15.5738C71.8127 16.3342 71.5784 16.9192 71.0512 17.3871C70.524 17.8551 69.8797 18.0891 69.0597 18.0891ZM66.8924 37.626V20.7213H71.2855V37.626H66.8924Z" fill="white"/>
<path d="M82.5901 38.0353C81.0086 38.0353 79.5442 37.6259 78.3141 36.8655C77.084 36.105 76.0883 35.0522 75.3268 33.7068C74.6239 32.3614 74.2139 30.8406 74.2139 29.1443C74.2139 27.448 74.5653 25.9271 75.3268 24.5818C76.0297 23.2364 77.0255 22.1835 78.3141 21.4231C79.5442 20.6627 81.0086 20.2532 82.5901 20.2532C83.8787 20.2532 84.9917 20.4872 85.9289 20.9552C86.8661 21.4231 87.6861 22.125 88.2719 22.9439V13H92.665V37.5674H88.799L88.3304 35.1691C87.8033 35.9296 87.0418 36.573 86.1632 37.1579C85.226 37.7429 84.0545 38.0353 82.5901 38.0353ZM83.5273 34.2332C84.9331 34.2332 86.1046 33.7653 86.9832 32.8294C87.8618 31.8935 88.3304 30.6651 88.3304 29.2028C88.3304 27.7404 87.8618 26.5121 86.9832 25.5762C86.1046 24.6403 84.9331 24.1723 83.5273 24.1723C82.1215 24.1723 81.0086 24.6403 80.0714 25.5762C79.1342 26.5121 78.7241 27.7404 78.7241 29.2028C78.7241 30.6651 79.1927 31.8935 80.0714 32.8294C80.95 33.7653 82.1215 34.2332 83.5273 34.2332Z" fill="white"/>
<path d="M103.853 38.0352C102.213 38.0352 100.748 37.6843 99.401 36.9239C98.1123 36.1634 97.058 35.1105 96.2965 33.8237C95.535 32.4783 95.125 30.9575 95.125 29.2027C95.125 27.4479 95.535 25.927 96.2965 24.5817C97.058 23.2363 98.1123 22.1834 99.401 21.4815C100.69 20.7211 102.213 20.3701 103.794 20.3701C105.434 20.3701 106.899 20.7211 108.187 21.4815C109.476 22.2419 110.53 23.2948 111.292 24.5817C112.053 25.927 112.463 27.4479 112.463 29.2027C112.463 30.9575 112.053 32.4783 111.292 33.8237C110.53 35.169 109.476 36.2219 108.187 36.9239C106.957 37.6843 105.493 38.0352 103.853 38.0352ZM103.853 34.2331C104.966 34.2331 105.961 33.8237 106.84 32.9463C107.66 32.0689 108.129 30.8405 108.129 29.1442C108.129 27.4479 107.719 26.2195 106.84 25.3421C106.02 24.4647 105.024 24.0552 103.911 24.0552C102.74 24.0552 101.744 24.4647 100.924 25.3421C100.104 26.2195 99.6939 27.4479 99.6939 29.1442C99.6939 30.8405 100.104 32.0689 100.924 32.9463C101.744 33.8237 102.74 34.2331 103.853 34.2331Z" fill="white"/>
<path d="M124.647 37.626V24.3479H122.304V20.7213H124.647V18.7325C124.647 16.6852 125.174 15.2229 126.229 14.3455C127.283 13.468 128.689 13.0586 130.446 13.0586H132.321V16.8022H131.149C130.388 16.8022 129.86 16.9777 129.568 17.2701C129.275 17.5626 129.099 18.0891 129.099 18.791V20.7798H132.731V24.3479H129.099V37.626H124.647Z" fill="white"/>
<path d="M138.061 18.0891C137.241 18.0891 136.596 17.8551 136.069 17.3871C135.542 16.9192 135.308 16.3342 135.308 15.5738C135.308 14.8134 135.542 14.2285 136.069 13.7605C136.596 13.2926 137.241 13.0586 138.061 13.0586C138.881 13.0586 139.525 13.2926 140.052 13.7605C140.579 14.2285 140.814 14.8134 140.814 15.5738C140.814 16.3342 140.579 16.9192 140.052 17.3871C139.525 17.8551 138.881 18.0891 138.061 18.0891ZM135.893 37.626V20.7213H140.286V37.626H135.893Z" fill="white"/>
<path d="M143.801 37.6259V20.7212H147.667L148.018 23.5874C148.545 22.593 149.307 21.7741 150.303 21.1892C151.298 20.6042 152.47 20.3118 153.817 20.3118C155.926 20.3118 157.566 20.9552 158.679 22.3006C159.792 23.6459 160.436 25.5762 160.436 28.0914V37.6259H156.043V28.5009C156.043 27.0386 155.75 25.9272 155.164 25.1668C154.579 24.4063 153.641 23.9969 152.411 23.9969C151.181 23.9969 150.185 24.4063 149.365 25.2837C148.545 26.1611 148.194 27.331 148.194 28.9104V37.6259H143.801Z" fill="white"/>
<path d="M170.101 38.0353C168.637 38.0353 167.465 37.8013 166.528 37.3334C165.591 36.8654 164.888 36.222 164.419 35.4616C163.951 34.7011 163.716 33.8237 163.716 32.8878C163.716 31.3085 164.302 30.0216 165.532 29.0857C166.762 28.0913 168.578 27.6234 171.038 27.6234H175.314V27.2139C175.314 26.0441 174.963 25.2251 174.318 24.6402C173.674 24.1138 172.854 23.8213 171.858 23.8213C170.98 23.8213 170.218 24.0553 169.515 24.4647C168.871 24.8742 168.461 25.5176 168.285 26.3365H164.009C164.126 25.1082 164.536 24.0553 165.239 23.1194C165.942 22.1835 166.879 21.54 168.051 21.0136C169.164 20.5456 170.452 20.2532 171.858 20.2532C174.26 20.2532 176.193 20.8381 177.54 22.0665C178.946 23.2948 179.649 24.9912 179.649 27.1554V37.5673H175.9L175.666 34.8766C175.138 35.8125 174.436 36.5144 173.557 37.0994C172.62 37.7428 171.507 38.0353 170.101 38.0353ZM171.038 34.6426C172.268 34.6426 173.264 34.2332 173.967 33.4143C174.67 32.5954 175.08 31.601 175.256 30.3726H171.565C170.394 30.3726 169.574 30.6066 169.047 31.016C168.519 31.4255 168.285 31.9519 168.285 32.5954C168.285 33.2388 168.519 33.7652 169.047 34.1162C169.574 34.4672 170.218 34.6426 171.038 34.6426Z" fill="white"/>
<path d="M183.574 37.6259V20.7212H187.44L187.791 23.5874C188.318 22.593 189.08 21.7741 190.076 21.1892C191.071 20.6042 192.243 20.3118 193.59 20.3118C195.699 20.3118 197.339 20.9552 198.452 22.3006C199.565 23.6459 200.209 25.5762 200.209 28.0914V37.6259H195.816V28.5009C195.816 27.0386 195.523 25.9272 194.937 25.1668C194.352 24.4063 193.414 23.9969 192.184 23.9969C190.954 23.9969 189.958 24.4063 189.138 25.2837C188.318 26.1611 187.967 27.331 187.967 28.9104V37.6259H183.574Z" fill="white"/>
<path d="M212.334 38.0353C210.577 38.0353 209.054 37.6843 207.765 36.9239C206.418 36.1635 205.422 35.1106 204.661 33.7652C203.899 32.4199 203.489 30.899 203.489 29.1442C203.489 27.3894 203.899 25.8686 204.661 24.5232C205.422 23.1779 206.477 22.125 207.765 21.3646C209.112 20.6041 210.635 20.2532 212.334 20.2532C214.501 20.2532 216.317 20.8381 217.782 21.9495C219.246 23.0609 220.183 24.6402 220.593 26.629H215.966C215.731 25.8101 215.263 25.1667 214.619 24.6987C213.974 24.2308 213.154 23.9968 212.217 23.9968C210.987 23.9968 209.991 24.4647 209.171 25.3421C208.351 26.278 207.882 27.5064 207.882 29.1442C207.882 30.7821 208.292 32.0104 209.171 32.9463C209.991 33.8822 211.045 34.2917 212.217 34.2917C213.154 34.2917 213.916 34.0577 214.619 33.5898C215.263 33.1218 215.731 32.4784 215.966 31.6595H220.593C220.183 33.5898 219.246 35.1106 217.782 36.2805C216.317 37.4503 214.501 38.0353 212.334 38.0353Z" fill="white"/>
<path d="M232.424 38.0353C230.726 38.0353 229.203 37.6843 227.856 36.9239C226.508 36.222 225.513 35.1691 224.751 33.8822C223.99 32.5369 223.638 31.016 223.638 29.3197C223.638 27.5649 223.99 25.9856 224.751 24.6402C225.513 23.2949 226.508 22.242 227.797 21.423C229.086 20.6626 230.667 20.2532 232.424 20.2532C234.065 20.2532 235.529 20.6041 236.818 21.3646C238.106 22.0665 239.102 23.0609 239.805 24.3477C240.508 25.6346 240.859 27.0385 240.859 28.5593C240.859 28.7933 240.859 29.0857 240.859 29.3197C240.859 29.6122 240.859 29.9046 240.801 30.1971H227.914C228.031 31.5425 228.441 32.5369 229.32 33.2973C230.14 34.0577 231.136 34.4087 232.366 34.4087C233.244 34.4087 234.006 34.2332 234.592 33.8237C235.177 33.4143 235.646 32.8878 235.939 32.2444H240.391C240.098 33.2973 239.571 34.2917 238.809 35.1691C238.048 36.0465 237.169 36.7484 236.056 37.2164C235.002 37.8013 233.772 38.0353 232.424 38.0353ZM232.424 23.8798C231.37 23.8798 230.433 24.1723 229.613 24.7572C228.793 25.3421 228.266 26.278 228.031 27.5064H236.466C236.408 26.395 235.998 25.5176 235.236 24.8742C234.475 24.1723 233.537 23.8798 232.424 23.8798Z" fill="white"/>
</svg>
