<svg width="358" height="66" viewBox="0 0 358 66" fill="none" xmlns="http://www.w3.org/2000/svg">
<path d="M32.9029 0C14.8669 0 0.229004 14.7916 0.229004 33.1506C0.229004 38.9802 1.71022 44.4618 4.32413 49.1604C4.41126 47.5942 4.58552 46.115 4.75978 44.5489C6.50239 29.5832 12.4272 12.7034 26.281 5.22057C27.5008 4.52449 29.4177 5.30758 27.9364 7.91786C26.0196 11.3982 24.6255 15.7487 24.4512 19.8382C28.0236 18.8811 31.7702 19.1421 36.8237 20.8823C38.9149 21.5784 38.2178 19.7512 33.6871 18.011C35.6039 13.0514 39.002 9.04899 43.7942 6.87375C45.1011 6.26468 45.711 7.3088 45.1011 9.22301C44.9269 9.65805 43.8813 14.0955 43.5328 15.8357C42.4001 21.9264 41.9644 28.1041 41.8773 34.2817C45.8853 32.8026 49.1963 31.4104 51.4616 31.2364C52.8557 31.0624 55.9053 30.9754 55.9053 35.8479C55.9053 52.0317 38.1307 56.9042 30.6375 56.9042C28.1107 56.9042 32.0316 58.9924 39.8733 58.5574L40.7446 65.2571C55.034 61.6897 65.5768 48.6383 65.5768 33.1506C65.5768 14.7916 50.9389 0 32.9029 0Z" fill="white"/>
<path d="M27.0659 27.9302C26.1946 27.8432 24.7133 28.9744 24.6262 30.3665C24.5391 31.8457 25.846 33.0638 26.7173 33.1508C27.5886 33.2378 28.4599 32.1067 28.5471 30.6275C28.6342 29.2354 28.0243 28.0173 27.0659 27.9302Z" fill="white"/>
<path d="M35.0822 30.6275C35.1694 29.1484 34.5595 27.9302 33.601 27.9302C32.7297 27.8432 31.2485 28.9744 31.1614 30.3665C31.0742 31.8457 32.3812 33.0638 33.2525 33.1508C34.2109 33.2378 34.9951 32.1067 35.0822 30.6275Z" fill="white"/>
<path d="M53.7279 37.5014C54.2507 36.8053 54.1636 34.9781 53.0309 34.108C51.8982 33.2379 50.1556 33.586 49.5457 34.3691C49.0229 35.0651 49.4585 36.3703 50.5912 37.3274C51.811 38.1105 53.2051 38.2845 53.7279 37.5014Z" fill="white"/>
<path d="M82.2191 56.2925V36.5414H78.7339V31.1468H82.2191V28.1885C82.2191 25.1431 83.0033 22.9679 84.5716 21.6627C86.14 20.3576 88.2311 19.7485 90.845 19.7485H93.6332V25.3171H91.8906C90.7579 25.3171 89.9737 25.5782 89.538 26.0132C89.1024 26.4483 88.841 27.2314 88.841 28.2755V31.2338H94.2431V36.5414H88.841V56.2925H82.2191Z" fill="white"/>
<path d="M102.172 27.2345C100.952 27.2345 99.994 26.8865 99.2098 26.1904C98.4257 25.4943 98.0771 24.6242 98.0771 23.4931C98.0771 22.362 98.4257 21.4919 99.2098 20.7958C99.994 20.0997 100.952 19.7517 102.172 19.7517C103.392 19.7517 104.351 20.0997 105.135 20.7958C105.919 21.4919 106.267 22.362 106.267 23.4931C106.267 24.6242 105.919 25.4943 105.135 26.1904C104.351 26.8865 103.392 27.2345 102.172 27.2345ZM98.9485 56.2957V31.15H105.483V56.2957H98.9485Z" fill="white"/>
<path d="M122.299 56.9046C119.947 56.9046 117.769 56.2955 115.939 55.1644C114.109 54.0333 112.628 52.4671 111.495 50.4659C110.45 48.4647 109.84 46.2024 109.84 43.6792C109.84 41.1559 110.363 38.8936 111.495 36.8924C112.541 34.8912 114.022 33.325 115.939 32.1939C117.769 31.0628 119.947 30.4537 122.299 30.4537C124.216 30.4537 125.872 30.8018 127.266 31.4978C128.66 32.1939 129.88 33.238 130.751 34.4562V19.6646H137.286V56.2085H131.535L130.838 52.6411C130.054 53.7723 128.921 54.7294 127.614 55.5995C126.22 56.4696 124.478 56.9046 122.299 56.9046ZM123.694 51.249C125.785 51.249 127.527 50.5529 128.834 49.1608C130.141 47.7686 130.838 45.9414 130.838 43.7662C130.838 41.5909 130.141 39.7637 128.834 38.3716C127.527 36.9794 125.785 36.2834 123.694 36.2834C121.602 36.2834 119.947 36.9794 118.553 38.3716C117.159 39.7637 116.549 41.5909 116.549 43.7662C116.549 45.9414 117.246 47.7686 118.553 49.1608C119.86 50.5529 121.602 51.249 123.694 51.249Z" fill="white"/>
<path d="M153.928 56.9046C151.488 56.9046 149.31 56.3825 147.306 55.2514C145.389 54.1202 143.821 52.5541 142.688 50.6399C141.555 48.6386 140.945 46.3764 140.945 43.7661C140.945 41.1558 141.555 38.8936 142.688 36.8924C143.821 34.8912 145.389 33.325 147.306 32.2809C149.223 31.1497 151.488 30.6277 153.841 30.6277C156.28 30.6277 158.459 31.1497 160.375 32.2809C162.292 33.412 163.861 34.9782 164.993 36.8924C166.126 38.8936 166.736 41.1558 166.736 43.7661C166.736 46.3764 166.126 48.6386 164.993 50.6399C163.861 52.6411 162.292 54.2073 160.375 55.2514C158.546 56.3825 156.367 56.9046 153.928 56.9046ZM153.928 51.2489C155.583 51.2489 157.064 50.6399 158.371 49.3347C159.591 48.0296 160.288 46.2024 160.288 43.6791C160.288 41.1558 159.678 39.3286 158.371 38.0235C157.152 36.7183 155.67 36.1093 154.015 36.1093C152.272 36.1093 150.791 36.7183 149.571 38.0235C148.351 39.3286 147.741 41.1558 147.741 43.6791C147.741 46.2024 148.351 48.0296 149.571 49.3347C150.791 50.6399 152.272 51.2489 153.928 51.2489Z" fill="white"/>
<path d="M184.859 56.2957V36.5445H181.374V31.15H184.859V28.1916C184.859 25.1463 185.643 22.9711 187.211 21.6659C188.78 20.3608 190.871 19.7517 193.485 19.7517H196.273V25.3203H194.53C193.398 25.3203 192.613 25.5813 192.178 26.0164C191.742 26.4514 191.481 27.2345 191.481 28.2786V31.237H196.883V36.5445H191.481V56.2957H184.859Z" fill="white"/>
<path d="M204.812 27.2345C203.592 27.2345 202.634 26.8865 201.849 26.1904C201.065 25.4943 200.717 24.6242 200.717 23.4931C200.717 22.362 201.065 21.4919 201.849 20.7958C202.634 20.0997 203.592 19.7517 204.812 19.7517C206.032 19.7517 206.99 20.0997 207.774 20.7958C208.559 21.4919 208.907 22.362 208.907 23.4931C208.907 24.6242 208.559 25.4943 207.774 26.1904C206.99 26.8865 206.032 27.2345 204.812 27.2345ZM201.588 56.2957V31.15H208.123V56.2957H201.588Z" fill="white"/>
<path d="M213.351 56.2956V31.1498H219.101L219.624 35.4133C220.408 33.9341 221.541 32.716 223.022 31.8459C224.503 30.9758 226.246 30.5408 228.25 30.5408C231.387 30.5408 233.826 31.4979 235.482 33.4991C237.137 35.5003 238.096 38.3716 238.096 42.113V56.2956H231.561V42.7221C231.561 40.5469 231.125 38.8937 230.254 37.7626C229.383 36.6314 227.988 36.0224 226.159 36.0224C224.329 36.0224 222.848 36.6314 221.628 37.9366C220.408 39.2417 219.885 40.9819 219.885 43.3312V56.2956H213.351Z" fill="white"/>
<path d="M252.472 56.9045C250.294 56.9045 248.551 56.5565 247.157 55.8604C245.763 55.1643 244.717 54.2072 244.02 53.0761C243.323 51.945 242.975 50.6398 242.975 49.2477C242.975 46.8984 243.846 44.9842 245.676 43.592C247.505 42.1129 250.206 41.4168 253.866 41.4168H260.226V40.8077C260.226 39.0676 259.704 37.8494 258.745 36.9793C257.787 36.1962 256.567 35.7612 255.086 35.7612C253.779 35.7612 252.646 36.1092 251.601 36.7183C250.642 37.3274 250.032 38.2845 249.771 39.5026H243.41C243.585 37.6754 244.194 36.1092 245.24 34.7171C246.286 33.3249 247.68 32.3678 249.422 31.5847C251.078 30.8887 252.995 30.4536 255.086 30.4536C258.658 30.4536 261.533 31.3237 263.537 33.1509C265.629 34.9781 266.674 37.5014 266.674 40.7207V56.2084H261.098L260.749 52.206C259.965 53.5981 258.919 54.6423 257.612 55.5123C256.218 56.4695 254.563 56.9045 252.472 56.9045ZM253.866 51.8579C255.696 51.8579 257.177 51.2489 258.222 50.0308C259.268 48.8126 259.878 47.3335 260.139 45.5063H254.65C252.907 45.5063 251.688 45.8543 250.903 46.4634C250.119 47.0724 249.771 47.8555 249.771 48.8126C249.771 49.7697 250.119 50.5528 250.903 51.0749C251.688 51.5969 252.646 51.8579 253.866 51.8579Z" fill="white"/>
<path d="M272.512 56.2956V31.1498H278.262L278.785 35.4133C279.569 33.9341 280.702 32.716 282.183 31.8459C283.664 30.9758 285.407 30.5408 287.411 30.5408C290.548 30.5408 292.987 31.4979 294.643 33.4991C296.298 35.5003 297.257 38.3716 297.257 42.113V56.2956H290.722V42.7221C290.722 40.5469 290.286 38.8937 289.415 37.7626C288.544 36.6314 287.15 36.0224 285.32 36.0224C283.49 36.0224 282.009 36.6314 280.789 37.9366C279.569 39.2417 279.046 40.9819 279.046 43.3312V56.2956H272.512Z" fill="white"/>
<path d="M315.293 56.9045C312.679 56.9045 310.414 56.3824 308.497 55.2513C306.493 54.1202 305.012 52.554 303.879 50.5528C302.747 48.5516 302.137 46.2893 302.137 43.6791C302.137 41.0688 302.747 38.8065 303.879 36.8053C305.012 34.8041 306.58 33.2379 308.497 32.1068C310.501 30.9757 312.767 30.4536 315.293 30.4536C318.517 30.4536 321.218 31.3237 323.397 32.9769C325.575 34.6301 326.969 36.9793 327.579 39.9376H320.695C320.347 38.7195 319.65 37.7624 318.691 37.0663C317.733 36.3703 316.513 36.0222 315.119 36.0222C313.289 36.0222 311.808 36.7183 310.588 38.0234C309.369 39.4156 308.671 41.2428 308.671 43.6791C308.671 46.1153 309.281 47.9425 310.588 49.3347C311.808 50.7268 313.377 51.3359 315.119 51.3359C316.513 51.3359 317.646 50.9879 318.691 50.2918C319.65 49.5957 320.347 48.6386 320.695 47.4205H327.579C326.969 50.2918 325.575 52.554 323.397 54.2942C321.218 56.0344 318.517 56.9045 315.293 56.9045Z" fill="white"/>
<path d="M345.178 56.9045C342.652 56.9045 340.386 56.3824 338.382 55.2513C336.378 54.2072 334.897 52.641 333.764 50.7268C332.632 48.7256 332.109 46.4634 332.109 43.9401C332.109 41.3298 332.632 38.9805 333.764 36.9793C334.897 34.9781 336.378 33.4119 338.295 32.1938C340.212 31.0627 342.565 30.4536 345.178 30.4536C347.618 30.4536 349.796 30.9757 351.713 32.1068C353.63 33.1509 355.111 34.6301 356.157 36.5443C357.202 38.4585 357.725 40.5467 357.725 42.809C357.725 43.157 357.725 43.592 357.725 43.9401C357.725 44.3751 357.725 44.8102 357.638 45.2452H338.469C338.644 47.2464 339.254 48.7256 340.561 49.8567C341.78 50.9879 343.262 51.5099 345.091 51.5099C346.398 51.5099 347.531 51.2489 348.402 50.6398C349.274 50.0308 349.971 49.2477 350.406 48.2906H357.028C356.593 49.8567 355.808 51.3359 354.676 52.641C353.543 53.9462 352.236 54.9903 350.581 55.6864C349.012 56.5565 347.182 56.9045 345.178 56.9045ZM345.178 35.8482C343.61 35.8482 342.216 36.2833 340.996 37.1533C339.776 38.0234 338.992 39.4156 338.644 41.2428H351.19C351.103 39.5896 350.493 38.2845 349.361 37.3274C348.228 36.2833 346.834 35.8482 345.178 35.8482Z" fill="white"/>
</svg>
