<svg width="73" height="84" viewBox="0 0 73 84" fill="none" xmlns="http://www.w3.org/2000/svg">
<path d="M54.6003 63.1801C54.6003 63.1801 52.5567 53.1886 57.6232 52.891C62.7749 52.5934 61.455 62.4573 61.455 62.4573" stroke="#047E97" stroke-width="3" stroke-miterlimit="10" stroke-linecap="round" stroke-linejoin="round"/>
<path d="M56.9667 73.0811C53.6457 73.2512 50.8783 70.7002 50.708 67.3839C50.5377 64.0675 53.0922 61.3039 56.4132 61.1339C57.9033 61.0488 59.2658 61.5165 60.3301 62.3669C58.9251 60.7512 56.8389 59.7733 54.5398 59.9009C50.5377 60.0709 47.4722 63.4723 47.6425 67.4689C47.8128 71.4655 51.2189 74.5267 55.221 74.3566C57.2647 74.2716 59.0954 73.3362 60.3301 71.8906C59.3935 72.5709 58.2439 72.9961 56.9667 73.0811Z" fill="#29BEBE"/>
<path d="M60.9867 71.2157L60.5609 62.1596C60.5609 61.7344 60.6035 61.3943 60.7738 61.0967C60.6887 61.0117 60.6035 60.9266 60.5184 60.8416C58.8579 59.311 56.6439 58.5032 54.3874 58.6307C52.1309 58.7157 50.0021 59.7362 48.4694 61.3943C46.9366 63.0525 46.1703 65.2633 46.2554 67.5167C46.3406 69.7701 47.3624 71.896 49.0229 73.4266C50.5982 74.8722 52.6418 75.6375 54.7706 75.6375C54.8983 75.6375 55.0261 75.6375 55.1538 75.6375C57.4103 75.5524 59.5391 74.532 61.0718 72.8739C61.1996 72.7463 61.2847 72.6188 61.4125 72.4487C61.157 72.1511 60.9867 71.6834 60.9867 71.2157ZM59.1985 71.1307C58.1341 72.3211 56.6439 73.0014 55.0686 73.0864C53.4933 73.1715 51.9606 72.6188 50.7685 71.5558C49.5763 70.4929 48.8951 69.0048 48.81 67.4317C48.7248 65.8586 49.2783 64.328 50.3427 63.1375C51.4071 61.947 52.8973 61.2668 54.4726 61.1817C54.5577 61.1817 54.6429 61.1817 54.7706 61.1817C56.2608 61.1817 57.6658 61.7344 58.7727 62.7549C59.9649 63.8178 60.6461 65.3059 60.7312 66.879C60.8164 68.4096 60.2629 69.9402 59.1985 71.1307Z" fill="#047E97"/>
<path d="M65.2857 61.9045L65.7117 70.9181C65.7117 70.8756 65.7117 70.8756 65.7117 70.8331L65.2857 61.777C65.2857 61.5644 65.2004 61.3093 65.1152 61.1392C65.2004 61.3518 65.2857 61.6494 65.2857 61.9045Z" fill="#C8C8C8"/>
<path d="M61.8776 70.9095L61.4212 61.9523C61.3756 61.0692 61.832 60.3123 62.4252 60.3123L65.346 60.1861H65.3916C65.1634 60.102 64.9352 60.06 64.6614 60.06L59.9609 60.2702C59.0025 60.3123 58.2723 61.0692 58.3179 61.9523L58.7743 70.9095C58.8199 71.7926 59.6414 72.4655 60.5998 72.4234L62.6078 72.3393C62.1971 72.087 61.9232 71.5403 61.8776 70.9095Z" fill="#29BEBE"/>
<path d="M64.4683 60.2464L60.083 60.459C59.1889 60.5015 58.5077 61.2668 58.5502 62.1597L58.976 71.2158C59.0186 72.1086 59.7849 72.7889 60.679 72.7464L65.0643 72.5338C65.9584 72.4913 66.6397 71.726 66.5971 70.8331L66.1713 61.777C66.1287 60.8842 65.3624 60.2039 64.4683 60.2464Z" stroke="#047E97" stroke-width="3" stroke-miterlimit="10" stroke-linecap="round" stroke-linejoin="round"/>
<path d="M63.4461 83.1205H63.2332C62.2539 83.163 61.4024 82.3977 61.3598 81.4198L60.9341 71.9811L64.7233 71.811L65.1491 81.2498C65.1917 82.2702 64.4253 83.078 63.4461 83.1205Z" fill="#047E97"/>
<path d="M66.2663 35.5453C63.2009 35.5453 58.1769 37.8412 52.642 39.882C52.7272 31.5062 53.3658 23.1304 54.8986 14.8396C55.3243 12.4586 56.8145 6.46377 57.0274 5.82601C57.8363 3.18997 56.9848 1.82943 55.1966 2.59473C48.6399 5.48588 43.8714 10.928 41.2743 17.6882C47.5755 20.1542 48.4696 22.6202 45.617 21.6423C38.6771 19.2613 33.5255 18.9212 28.4589 20.2392C28.7995 14.627 30.6303 8.80219 33.3126 4.0403C35.3562 0.426369 32.8017 -0.594036 31.0561 0.341335C11.9395 10.5454 3.85004 33.4195 1.42321 53.785C1.16776 55.8684 0.997452 57.9517 0.827148 60.035C8.53339 73.853 23.2647 83.2067 40.2525 83.2067C43.9991 83.2067 47.6181 82.739 51.1093 81.8887L49.8746 72.7901C39.1029 73.4278 33.7809 70.5792 37.187 70.5792C40.6356 70.5367 45.617 69.8139 50.7261 68.0282C50.6836 67.8156 50.6836 67.5605 50.641 67.3479C50.4707 64.0316 53.0252 61.268 56.3462 61.0979C58.1343 61.0129 59.7522 61.7357 60.9018 62.8837C67.203 58.4194 72.0567 51.7017 72.0567 41.9228C72.0141 35.3752 68.2248 35.5028 66.2663 35.5453ZM34.2493 34.8225C34.1215 36.7783 33.0145 38.3089 31.7798 38.2664C30.5451 38.1814 28.757 36.4807 28.8847 34.4824C29.0124 32.5266 31.0135 31.0385 32.2482 31.1236C33.4403 31.2086 34.377 32.8667 34.2493 34.8225ZM43.2328 34.8225C43.105 36.7783 41.9981 38.3089 40.7634 38.2664C39.5287 38.1814 37.7405 36.4807 37.8682 34.4824C37.9959 32.5266 39.997 31.0385 41.2317 31.1236C42.4664 31.2086 43.3605 32.8667 43.2328 34.8225ZM68.1823 44.1762C67.4159 45.1541 65.5426 44.9841 63.9672 43.7936C62.3919 42.6031 61.7533 40.8174 62.5197 39.8395C63.286 38.8616 65.7129 38.3089 67.2882 39.5419C68.8209 40.6899 68.9486 43.1558 68.1823 44.1762Z" fill="#29BEBE"/>
</svg>
