<svg width="77" height="75" viewBox="0 0 77 75" fill="none" xmlns="http://www.w3.org/2000/svg">
<path d="M47.8235 75C47.6357 75 47.5105 74.9376 47.3226 74.8753L38.1179 70.6975L28.7879 74.6882C28.287 74.9376 27.6608 74.7506 27.3477 74.3141L21.4617 66.0832L11.3803 64.8985C10.8168 64.8361 10.3784 64.3997 10.3158 63.8385L9.37655 53.7993L1.29893 47.7509C0.860606 47.4391 0.672751 46.8156 0.92322 46.3167L5.11858 37.1506L1.11108 27.8597C0.860614 27.3608 1.04845 26.7373 1.48677 26.4255L9.75226 20.5641L10.942 10.525C11.0046 9.96379 11.4429 9.52731 12.0065 9.46496L22.0879 8.52963L28.1617 0.485844C28.4748 0.0493596 29.101 -0.137704 29.6019 0.111716L38.8067 4.28949L48.1366 0.29878C48.6376 0.0493601 49.2637 0.236424 49.5768 0.672909L55.4629 8.90376L65.5442 10.0885C66.1078 10.1509 66.5461 10.5873 66.6087 11.1485L67.548 21.1877L75.6256 27.2361C76.0639 27.5479 76.2518 28.1714 76.0013 28.6703L71.8686 37.8988L75.8761 47.1897C76.1265 47.6885 75.9387 48.3121 75.5004 48.6239L67.2349 54.4852L66.0452 64.5244C65.9826 65.0856 65.5442 65.522 64.9807 65.5844L54.8993 66.5197L48.8254 74.5635C48.575 74.8129 48.1992 75 47.8235 75ZM38.1179 68.2033C38.3057 68.2033 38.431 68.2657 38.6188 68.328L47.4479 72.3187L53.2712 64.5867C53.4591 64.3373 53.7722 64.1502 54.0853 64.0879L63.7283 63.1526L64.8554 53.5499C64.9181 53.2381 65.1059 52.9263 65.3564 52.7393L73.2462 47.1273L69.4265 38.2729C69.3013 37.9612 69.3013 37.587 69.4265 37.3376L73.434 28.5456L65.6695 22.7466C65.419 22.5595 65.2311 22.2477 65.1685 21.9359L64.4171 12.3333L54.7741 11.2109C54.461 11.1485 54.1479 10.9615 53.96 10.7121L48.3245 2.85533L39.4328 6.65898C39.1197 6.78369 38.744 6.78369 38.4936 6.65898L29.6645 2.66827L23.8411 10.4003C23.6533 10.6497 23.3402 10.8368 23.0271 10.8991L13.3214 11.7097L12.1943 21.3124C12.1317 21.6242 11.9439 21.9359 11.6934 22.123L3.80362 27.735L7.62327 36.5894C7.74851 36.9011 7.74851 37.2753 7.62327 37.5247L3.61577 46.3167L11.3803 52.1157C11.6308 52.3028 11.8186 52.6146 11.8812 52.9263L12.8205 62.529L22.4636 63.6514C22.7766 63.7138 23.0897 63.9008 23.2776 64.1502L28.9131 72.007L37.8048 68.2033C37.8048 68.2033 37.9926 68.2033 38.1179 68.2033Z" fill="white"/>
<path d="M47.1968 52.3028C43.3146 52.3028 40.1211 49.185 40.1211 45.2567C40.1211 41.3907 43.2519 38.2106 47.1968 38.2106C51.1417 38.2106 54.2726 41.3283 54.2726 45.2567C54.21 49.1227 51.0791 52.3028 47.1968 52.3028ZM47.1968 40.6424C44.6295 40.6424 42.5632 42.7001 42.5632 45.2567C42.5632 47.8132 44.6295 49.8709 47.1968 49.8709C49.7641 49.8709 51.8305 47.8132 51.8305 45.2567C51.8305 42.7001 49.7641 40.6424 47.1968 40.6424Z" fill="white"/>
<path d="M51.0177 24.4932L30.4792 51.4929C30.354 51.6799 30.1035 51.8046 29.8531 51.8046H28.5381C27.8493 51.8046 27.4736 51.0564 27.8493 50.4952L48.3878 23.4955C48.513 23.3084 48.7635 23.1837 49.0139 23.1837H50.3289C51.0803 23.1837 51.456 23.932 51.0177 24.4932Z" fill="white"/>
<path d="M28.5368 51.991C28.1611 51.991 27.7854 51.804 27.5975 51.4298C27.4097 51.0557 27.4723 50.6816 27.7227 50.3698L48.2612 23.3701C48.449 23.1207 48.7621 22.996 49.0752 22.996H50.3902C50.7659 22.996 51.1416 23.183 51.3294 23.5572C51.5173 23.9313 51.4547 24.3054 51.2042 24.6172L30.6657 51.6169C30.4779 51.8663 30.1648 51.991 29.8517 51.991H28.5368ZM49.0752 23.3701C48.8874 23.3701 48.6995 23.4325 48.5743 23.6195L28.0358 50.6192C27.9106 50.8063 27.848 51.0557 27.9732 51.2428C28.0984 51.4298 28.2863 51.6169 28.5368 51.6169H29.8517C30.0396 51.6169 30.2274 51.5545 30.3527 51.3675L50.8911 24.3678C51.0164 24.1807 51.079 23.9313 50.9537 23.7442C50.8285 23.5572 50.6406 23.3701 50.3902 23.3701H49.0752Z" fill="white"/>
</svg>
