<svg width="74" height="101" viewBox="0 0 74 101" fill="none" xmlns="http://www.w3.org/2000/svg">
<path d="M49.1229 100.328H48.8908C47.8233 100.376 46.8951 99.5042 46.8487 98.3903L46.3845 87.6385L50.5153 87.4448L50.9794 98.1965C51.0258 99.3105 50.1904 100.279 49.1229 100.328Z" fill="#047E97"/>
<path d="M48.7976 100.569C47.6373 100.569 46.6626 99.6003 46.6162 98.3895L46.1521 87.3956L50.747 87.1534L51.2111 98.1473C51.2575 99.4065 50.3293 100.472 49.1225 100.52H48.8905C48.8905 100.569 48.8441 100.569 48.7976 100.569ZM46.6162 87.8799L47.0804 98.3895C47.1268 99.3581 47.9158 100.133 48.8905 100.085H49.1225C50.0508 100.036 50.7934 99.2128 50.747 98.1958L50.2829 87.6862L46.6162 87.8799Z" fill="#047E97"/>
<path d="M14.684 49.9099C13.57 25.2584 32.7387 6.12813 32.7387 6.12813L34.1311 5.3048C35.8019 1.81776 33.3885 0.849142 31.6712 1.81776C12.549 12.521 4.42665 36.3976 2.01317 57.7073C1.7811 59.8867 1.59544 62.0661 1.40979 64.2455C1.40979 64.2455 1.36338 64.9235 1.40979 65.0204C1.40979 65.0204 1.40979 65.0688 1.4562 65.0688C5.77263 72.9631 12.1777 79.4044 19.8822 83.618C19.8358 83.5695 15.7515 74.5129 14.684 49.9099Z" fill="#29BEBE"/>
<path d="M40.8146 90.3981C24.1059 90.3981 8.55743 80.9541 0.249469 65.7951C0.203056 65.7467 0.203065 65.6983 0.156652 65.6498C0.0174121 65.3592 -0.0290096 65.0687 0.0174036 64.1969C0.203056 61.6785 0.388717 59.4991 0.620783 57.5134C2.4309 41.5311 8.83591 12.9083 31.0214 0.509958C32.5066 -0.313371 34.2239 -0.119649 35.245 0.945835C35.8948 1.6723 36.8231 3.31897 35.1522 6.37013C32.7851 10.7289 31.2071 15.8626 30.6501 20.7542C33.899 20.1246 37.2408 20.2214 40.9538 21.0448C40.5361 20.6573 40.3505 20.0277 40.5825 19.4465C43.3673 11.8428 48.5656 5.93424 55.2491 2.88308C56.9199 2.10818 57.9875 2.83465 58.3588 3.17367C58.9621 3.70641 59.7976 5.06249 58.9621 8.01678C58.7765 8.59796 57.3377 14.7487 56.8735 17.2671C55.574 24.5802 54.8778 32.3292 54.6921 40.9015C59.6119 38.6253 63.8819 36.688 66.8524 36.6396C68.1983 36.6396 70.2405 36.8333 71.865 38.48C73.3038 39.9329 74 42.2576 74 45.3572C74 65.214 56.5486 73.8831 43.9707 76.111C45.7344 76.2562 47.8694 76.3047 50.3293 76.1594C51.0719 76.111 51.6753 76.6437 51.7681 77.4186L53.0212 86.9111C53.1141 87.3954 53.2533 88.4609 52.2786 88.9452C52.1858 88.9936 52.0466 89.0421 51.9538 89.0421C48.3335 89.9623 44.5741 90.3981 40.8146 90.3981ZM2.80219 64.5844C10.646 78.7262 25.1734 87.4923 40.8146 87.4923C43.9707 87.4923 47.1268 87.1533 50.19 86.4268L49.2154 79.0168C42.5783 79.259 36.6374 78.1451 35.5699 76.4016C35.245 75.8688 35.245 75.2392 35.5235 74.7549C36.034 73.7378 37.2408 73.7378 37.7513 73.7378C43.0888 73.6894 51.5824 71.7522 58.3588 67.5386C66.8988 62.2596 71.2152 54.7528 71.2152 45.2603C71.2152 42.9841 70.7511 41.3374 69.9156 40.4172C69.0802 39.5454 67.9199 39.4486 66.9452 39.4486H66.8988C64.4389 39.4486 60.0761 41.4827 55.4347 43.6137L53.8567 44.3401C53.439 44.5339 52.9284 44.4854 52.5107 44.2433C52.093 43.9527 51.8609 43.5168 51.9073 43.0325C52.0002 33.3463 52.7428 24.7255 54.1816 16.6375C54.6457 14.0223 56.1309 7.7262 56.3166 7.04816C56.5487 6.1764 56.5951 5.64366 56.5487 5.35307C56.5022 5.35307 56.4558 5.40151 56.4094 5.40151C50.7934 7.96836 46.3378 12.8115 43.7386 19.0591C46.2913 20.2214 49.8652 22.304 49.1225 24.4834C48.9369 25.0161 48.2407 26.2269 45.8272 25.3551C39.283 23.0304 34.3631 22.5946 29.4898 23.9022C29.072 23.9991 28.6079 23.9022 28.2366 23.6116C27.9117 23.321 27.7261 22.8851 27.7261 22.4008C28.051 16.5407 29.9075 10.1478 32.7387 4.82033C33.4349 3.51269 33.2957 2.93151 33.2492 2.88308C33.1564 2.78622 32.7851 2.73779 32.321 2.97995C11.2494 14.7487 5.16927 42.3545 3.35916 57.7556C3.12709 59.6928 2.94144 61.8238 2.75579 64.2453C2.80221 64.3906 2.80219 64.4875 2.80219 64.5844Z" fill="#047E97"/>
<path d="M40.3041 73.8347C35.9413 74.0284 32.5996 77.9029 32.7852 82.4555C32.9709 87.008 36.6839 90.495 41.0468 90.3013C45.4096 90.1076 48.7513 86.2331 48.5657 81.6806C48.3336 77.128 44.667 73.641 40.3041 73.8347Z" fill="#29BEBE"/>
<path d="M40.629 91.7545C38.3083 91.7545 36.1269 90.8827 34.3632 89.2361C32.5531 87.4926 31.4392 85.1194 31.3463 82.5042C31.2535 79.8889 32.0889 77.4189 33.7598 75.5301C35.4307 73.6412 37.7049 72.4789 40.2112 72.382C42.6711 72.2852 45.0846 73.1569 46.8947 74.9005C48.7049 76.644 49.8188 79.0171 49.9116 81.6324C50.0044 84.2477 49.169 86.7176 47.4981 88.6065C45.8272 90.4953 43.553 91.6576 41.0467 91.7545C40.9539 91.7545 40.8146 91.7545 40.629 91.7545ZM40.6754 75.2879C40.5826 75.2879 40.4897 75.2879 40.3505 75.2879C38.6332 75.3848 37.0087 76.1597 35.8484 77.5157C34.6881 78.8718 34.0847 80.5669 34.1775 82.4073C34.2704 84.1992 35.013 85.8943 36.3125 87.1051C37.6121 88.3159 39.2366 88.9455 41.0003 88.8486C42.7176 88.7518 44.342 87.9769 45.5023 86.6208C46.6627 85.2647 47.266 83.5696 47.1732 81.7292C47.0804 79.9373 46.3378 78.2422 45.0382 77.0314C43.8315 75.9175 42.2998 75.2879 40.6754 75.2879Z" fill="#047E97"/>
<path d="M50.2831 74.222L45.5025 74.4642C44.5278 74.5126 43.7852 75.3844 43.8317 76.4014L44.2958 86.7172C44.3422 87.7343 45.1776 88.5092 46.1523 88.4608L50.9329 88.2186C51.9075 88.1702 52.6502 87.2984 52.6037 86.2814L52.1396 75.9655C52.0932 74.9969 51.2578 74.1736 50.2831 74.222Z" fill="#29BEBE"/>
<path d="M46.0129 89.9623C45.2239 89.9623 44.4813 89.6717 43.8779 89.0905C43.2745 88.5094 42.9032 87.686 42.8568 86.8143L42.3927 76.4984C42.3463 75.6267 42.6247 74.7549 43.2281 74.1253C43.7851 73.4957 44.5741 73.1083 45.4095 73.0598L50.1901 72.8177C51.0255 72.7693 51.8609 73.0598 52.4643 73.6894C53.0677 74.2706 53.439 75.094 53.4854 75.9657L53.9495 86.2815C53.996 87.1533 53.7175 88.0251 53.1141 88.6547C52.5107 89.2843 51.7681 89.6717 50.9327 89.7202L46.1521 89.9623C46.1057 89.9623 46.0593 89.9623 46.0129 89.9623ZM50.3293 75.6751L45.5488 75.9173C45.4095 75.9173 45.3167 76.0141 45.2703 76.0626C45.2239 76.111 45.1775 76.2079 45.1775 76.3532L45.6416 86.669C45.6416 86.8143 45.7344 86.9111 45.7808 86.9596C45.8272 87.008 45.9201 87.0564 46.0593 87.0564L50.8399 86.8143C51.0255 86.8143 51.2112 86.6206 51.2112 86.3784L50.747 76.0626C50.747 75.9173 50.6542 75.8204 50.6078 75.772C50.5614 75.7235 50.4686 75.6751 50.3293 75.6751Z" fill="#047E97"/>
<path d="M40.4896 79.0653C39.8398 79.0653 39.2828 78.581 39.1436 77.9029C39.0044 77.0796 37.6584 69.8634 40.2575 66.3279C41.093 65.1655 42.2997 64.4875 43.7385 64.4391C45.2237 64.3422 46.5233 64.875 47.4516 65.9404C50.2828 69.0885 49.4937 76.1594 49.3545 76.9827C49.2617 77.7576 48.5655 78.3388 47.7765 78.2419C47.0338 78.1451 46.4769 77.4186 46.5697 76.5953C46.8946 74.1253 46.8018 69.5728 45.363 67.9261C44.9453 67.4902 44.4811 67.2965 43.8313 67.3449C43.1816 67.3934 42.7638 67.6355 42.3925 68.1198C40.8609 70.2024 41.4643 75.6267 41.8356 77.3218C41.9748 78.0967 41.5107 78.8716 40.7681 79.0168C40.6752 79.0168 40.5824 79.0653 40.4896 79.0653Z" fill="#047E97"/>
<path d="M38.4475 37.6082C38.5868 35.5741 40.5825 34.0243 41.8357 34.0728C43.0888 34.1696 43.9707 35.9131 43.8778 37.9473C43.7386 39.9814 42.6247 41.628 41.418 41.5312C40.1184 41.4343 38.3083 39.6423 38.4475 37.6082Z" fill="#047E97"/>
<path d="M41.4644 42.2576C41.418 42.2576 41.3716 42.2576 41.3252 42.2576C39.6543 42.1607 37.6121 39.8844 37.7514 37.5598C37.8906 35.1866 40.1649 33.2494 41.8357 33.3463C43.5066 33.4431 44.6669 35.4772 44.5277 37.9956C44.3885 40.4172 43.0425 42.2576 41.4644 42.2576ZM39.1438 37.6566C39.0509 39.3517 40.5826 40.7562 41.418 40.8046C42.1606 40.8531 43.0425 39.6907 43.1353 37.8988C43.2281 36.1068 42.4855 34.8476 41.7429 34.7992C40.9539 34.7508 39.2366 35.9615 39.1438 37.6566Z" fill="#047E97"/>
<path d="M34.781 37.9473C34.6418 39.9814 33.5278 41.628 32.3211 41.5312C31.0679 41.4343 29.3042 39.6423 29.3971 37.6082C29.5363 35.5741 31.5321 34.0243 32.7852 34.0728C34.0384 34.1696 34.9202 35.9131 34.781 37.9473Z" fill="#047E97"/>
<path d="M32.4139 42.2577C32.3675 42.2577 32.3211 42.2577 32.2747 42.2577C31.4393 42.2093 30.5574 41.6281 29.8148 40.7564C29.0258 39.7877 28.6545 38.6738 28.7009 37.5115C28.7473 36.3975 29.3043 35.2836 30.1861 34.4603C31.0215 33.6854 31.9962 33.2495 32.7852 33.298C34.4561 33.3948 35.6165 35.4289 35.4772 37.9474C35.338 40.4173 33.992 42.2577 32.4139 42.2577ZM32.6924 34.7993C32.3211 34.7993 31.7177 35.0415 31.1608 35.5742C30.7895 35.9132 30.1861 36.6397 30.1397 37.6568C30.0933 38.6738 30.6038 39.4487 30.9287 39.8362C31.4393 40.4658 32.0426 40.8048 32.4139 40.8048C33.1566 40.8532 34.0384 39.6909 34.1312 37.8989C34.224 36.107 33.4814 34.8478 32.7388 34.7993H32.6924Z" fill="#047E97"/>
<path d="M63.3251 43.1294C64.0677 42.1123 66.5276 41.5312 68.0592 42.7904C69.6373 44.0496 69.7301 46.6164 68.9875 47.6819C68.2449 48.699 66.3419 48.5053 64.7639 47.246C63.2323 45.9868 62.5825 44.1465 63.3251 43.1294Z" fill="#047E97"/>
</svg>
