<svg width="192" height="32" viewBox="0 0 192 32" fill="none" xmlns="http://www.w3.org/2000/svg">
<path fill-rule="evenodd" clip-rule="evenodd" d="M8.09076 13.6058H11.7736C11.7736 11.3776 10.1588 9.10046 6.42595 9.10046C2.74215 9.10046 0.92627 11.7833 0.92627 14.9218C0.92627 18.2631 3.09532 20.6421 6.67807 20.6421C10.1087 20.6421 11.7746 18.4659 11.7746 16.1368H8.14078C7.98971 16.8972 7.63654 17.7055 6.62704 17.7055C5.56752 17.7055 4.76013 16.8972 4.76013 14.8208C4.76013 12.7955 5.71859 12.138 6.62704 12.138C7.5855 12.138 7.98869 12.9484 8.09076 13.6058ZM21.5103 20.3894V12.6436H24.6378V13.3021C25.1931 12.6946 26.0005 12.2389 27.11 12.2389C28.1695 12.2389 29.279 12.7455 29.6332 13.454C30.0875 12.7955 31.097 12.2889 32.2065 12.2889C33.5181 12.2889 34.3255 12.8964 34.7287 13.5039C35.1329 12.8964 36.1414 12.2389 37.2009 12.2389C38.5636 12.2389 39.2699 12.7955 39.8242 13.5039C40.0953 13.113 40.4573 12.7937 40.8792 12.5734C41.3011 12.3531 41.7703 12.2383 42.2464 12.2389C44.6175 12.2389 45.2238 13.8076 45.2238 15.5293V20.3894H41.8432V16.0868C41.8432 15.3264 41.5901 15.0237 41.0358 15.0237C40.4805 15.0237 40.1273 15.5303 40.1273 16.1368V20.3894H36.6967V16.0868C36.6967 15.3264 36.4956 15.0237 35.9403 15.0237C35.385 15.0237 35.0319 15.5303 35.0319 16.1368V20.3894H31.6512V16.0868C31.6512 15.3264 31.3991 15.0237 30.8438 15.0237C30.3386 15.0237 29.9864 15.5303 29.9864 16.1368V20.3894H26.6058V16.0868C26.6058 15.3264 26.3536 15.0237 25.7984 15.0237C25.2431 15.0237 24.8899 15.5303 24.8899 16.1368V20.3894H21.5103ZM63.5888 14.8708V20.3894H60.2081V16.0868C60.2081 15.3264 59.906 15.0237 59.3507 15.0237C58.7955 15.0237 58.4423 15.5303 58.4423 16.1368V20.3894H55.0616V12.6436H58.1891V13.3021C58.7444 12.6946 59.8039 12.2389 60.6613 12.2389C61.7719 12.188 63.5888 12.8464 63.5888 14.8708ZM71.3586 20.4413C71.2075 19.8838 70.9544 19.1754 70.7022 18.313C70.5012 17.6556 70.3491 17.099 70.3491 16.7963C70.3491 17.099 70.248 17.6566 70.0459 18.313C69.7938 19.0734 69.5927 19.8838 69.3906 20.3894H65.8589L63.4877 12.5937H67.1205C67.2716 13.1002 67.4226 13.8087 67.6748 14.5171C67.8258 15.1246 67.9279 15.6312 67.9279 15.935C67.9279 15.6312 68.079 15.1246 68.23 14.5171C68.4832 13.7577 68.6843 13.0992 68.8353 12.5937H71.9128C72.0639 13.1002 72.266 13.7587 72.4681 14.5171C72.6192 15.1246 72.7702 15.6312 72.7702 15.935C72.7702 15.6312 72.9213 15.1246 73.0734 14.5171C73.2755 13.8087 73.4766 13.0992 73.6277 12.5937H77.2094L74.8893 20.3894L71.3586 20.4413ZM95.4743 9.35325H98.855V20.3894H95.4743V9.35325ZM105.111 17.9603V20.1865C104.96 20.2884 104.254 20.5922 103.143 20.5922C100.924 20.5922 100.318 19.4771 100.318 17.4028V14.618H99.3092V12.4408H100.318V9.35325H103.698V12.4408H105.06V14.618H103.698V16.7953C103.698 17.4527 103.899 17.6556 104.15 17.9083C104.356 18.1611 104.91 18.0602 105.111 17.9603ZM114.396 14.567V20.3883H111.015V16.0858C111.015 15.3254 110.662 15.0227 110.157 15.0227C109.601 15.0227 109.248 15.5293 109.248 16.1358V20.3883H105.767L105.717 9.4032H108.997V13.2501C109.449 12.6426 110.612 12.136 111.469 12.136C113.134 12.138 114.396 13.2511 114.396 14.567ZM142.748 15.7321L141.286 17.15V20.3894H140.579V9.20137H141.286V16.3896L145.524 12.3398H146.331L143.305 15.2765L146.684 20.3894H145.929L142.748 15.7321ZM137.099 12.8974C135.787 12.8974 134.626 13.9605 134.626 15.2765V20.3894H133.921V12.3908H134.626V13.7577C134.93 13.2511 135.737 12.2389 137.2 12.2389C139.319 12.2389 139.923 13.8077 139.923 15.0736V20.3894H139.218V15.4284C139.218 13.353 138.157 12.8974 137.099 12.8974ZM122.417 9.40422C124.385 9.40422 125.645 10.5183 125.595 12.0871C125.595 13.4539 124.788 14.2133 124.03 14.5681C124.687 14.8219 126.149 15.4294 126.149 17.3518C126.099 19.58 124.434 20.3894 122.82 20.3894H118.126V9.40422H122.417ZM122.266 14.3142C123.275 14.3142 124.89 13.9595 124.839 12.188C124.839 10.4663 123.527 10.0617 122.519 10.1126H118.837V14.3142H122.266ZM118.836 19.6809H122.72C124.588 19.6809 125.343 18.7197 125.343 17.3518C125.343 15.9859 124.234 15.0237 122.923 15.0237H118.836V19.6809ZM133.618 19.8838V20.3394C133.365 20.4903 133.062 20.4903 132.913 20.4903C132.659 20.4903 132.003 20.3394 132.003 19.0724C131.246 20.1355 130.237 20.5912 129.027 20.5912C127.765 20.5912 126.554 19.9837 126.554 18.262C126.554 16.5914 127.916 16.1867 128.47 16.0858C129.027 15.9839 130.388 15.781 130.742 15.7311C131.095 15.6292 132.003 15.6292 132.003 14.8188V14.1094C132.003 13.5019 131.549 12.6925 129.782 12.6925C127.814 12.6925 127.462 14.3632 127.462 14.5151H126.908C126.908 13.5538 127.613 12.136 129.683 12.136C132.609 12.136 132.709 13.7057 132.709 14.6669V19.2222C132.708 19.7818 133.012 20.0346 133.618 19.8838ZM131.953 17.4028V16.0348L129.178 16.4905C128.42 16.6413 127.26 16.9461 127.26 18.312C127.26 19.6799 128.32 19.9847 129.228 19.9847C130.589 19.9847 131.953 19.0734 131.953 17.4028ZM16.4658 12.0871C19.6954 12.0871 21.2081 14.1114 21.2081 16.3896C21.2081 19.3782 18.887 20.6421 16.6169 20.6421C13.7415 20.6421 12.1267 18.8206 12.1267 16.5435C12.1267 14.3652 13.3373 12.0871 16.4658 12.0871ZM16.6169 18.4659C17.5254 18.4659 17.6764 17.2519 17.6764 16.4416C17.6764 15.6812 17.5254 14.4661 16.6169 14.4661C15.7085 14.4661 15.6074 15.6801 15.6074 16.4416C15.6074 17.2519 15.7085 18.4659 16.6169 18.4659ZM49.9662 12.0871C53.1947 12.0871 54.7085 14.1114 54.7085 16.3896C54.7085 19.3782 52.3873 20.6421 50.1172 20.6421C47.2418 20.6421 45.627 18.8206 45.627 16.5435C45.627 14.3652 46.8376 12.0871 49.9662 12.0871ZM50.1172 18.4659C51.0257 18.4659 51.1267 17.2519 51.1267 16.4416C51.1267 15.6812 51.0257 14.4661 50.1172 14.4661C49.2088 14.4661 49.0577 15.6801 49.0577 16.4416C49.0577 17.2519 49.2098 18.4659 50.1172 18.4659ZM80.2879 17.2519C80.2879 17.9094 80.7421 18.4149 81.3474 18.4149C81.7516 18.4149 82.2048 18.2641 82.3559 17.9614H85.5855C84.8792 19.7829 83.0622 20.6432 81.1953 20.6432C78.37 20.6432 76.7051 18.8217 76.7051 16.5445C76.7051 14.3662 77.9157 12.0881 81.0943 12.0881C84.3239 12.0881 85.7866 14.1124 85.7866 16.3906C85.7866 16.7453 85.7866 16.9482 85.7366 17.2529H80.2879V17.2519ZM82.2559 15.2255C82.1548 14.7199 81.8016 14.2643 81.2974 14.2643C80.6921 14.2643 80.389 14.669 80.339 15.2255H82.2559ZM91.7415 20.3894L91.4894 19.8318C90.9841 20.3894 89.6225 20.7441 89.0172 20.7441C88.4619 20.7441 85.9897 20.5412 85.9897 18.2141C85.9897 15.5813 89.4204 15.4793 90.1267 15.3784C90.783 15.2765 91.2873 15.0747 91.2873 14.67C91.2873 14.3153 91.0352 14.0115 90.5809 14.0115C89.9756 14.0115 89.6225 14.5171 89.6225 15.0237H86.495C86.495 13.0992 88.1097 11.9861 90.4799 11.9861C94.3658 11.9861 94.769 13.3031 94.769 15.4284V17.9603C94.769 18.5678 94.769 19.2763 94.87 19.7818L95.0711 20.3894H91.7415ZM89.9246 17.5047C89.5204 17.7055 89.4704 17.9603 89.6725 18.2631C89.8746 18.5678 90.4299 18.6178 90.9341 18.2631C91.3883 17.9083 91.2873 17.3019 91.2873 17.0491C90.682 17.2519 90.2788 17.3508 89.9246 17.5047Z" fill="white" fill-opacity="0.5"/>
<path fill-rule="evenodd" clip-rule="evenodd" d="M176.957 31.0208L161.971 16.0349L176.957 1L188.158 12.2389L183.516 16.9471L176.957 31.0208Z" fill="white" fill-opacity="0.5" stroke="white" stroke-opacity="0.5" stroke-width="1.16728" stroke-miterlimit="2.613"/>
<path fill-rule="evenodd" clip-rule="evenodd" d="M176.957 31.0207L183.516 16.9471L188.157 12.2389L191.891 16.0348L176.957 31.0207Z" fill="white" fill-opacity="0.5"/>
</svg>
