<svg width="76" height="75" viewBox="0 0 76 75" fill="none" xmlns="http://www.w3.org/2000/svg">
<path d="M14.7419 24.1183C14.7419 14.7984 22.3304 7.24168 31.6895 7.24168H69.8848C66.7862 3.65226 62.1698 1.38525 57.0476 1.38525H18.7259C9.36679 1.38525 1.77832 8.94193 1.77832 18.2618V73.6145L14.7419 59.3198V24.1183Z" fill="#29BEBE"/>
<path d="M1.77745 75C1.58774 75 1.46127 75 1.27156 74.937C0.702422 74.7481 0.38623 74.1814 0.38623 73.6146V18.262C0.38623 8.1864 8.60707 0 18.725 0H57.0468C67.1647 0 75.3855 8.1864 75.3855 18.262V35.3275C75.3855 45.403 67.1647 53.5894 57.0468 53.5894H21.8869L2.85249 74.5592C2.5363 74.874 2.15687 75 1.77745 75ZM18.6618 2.83375C10.1248 2.83375 3.16867 9.7607 3.16867 18.262V69.9622L20.1795 51.1965C20.4324 50.8816 20.8119 50.7557 21.1913 50.7557H56.9835C65.5206 50.7557 72.4766 43.8287 72.4766 35.3275V18.262C72.4766 9.7607 65.5206 2.83375 56.9835 2.83375H18.6618Z" fill="white"/>
</svg>
