<svg width="76" height="75" viewBox="0 0 76 75" fill="none" xmlns="http://www.w3.org/2000/svg">
<path d="M14.741 24.1183C14.741 14.7984 22.3294 7.24168 31.6885 7.24168H69.8838C66.7852 3.65226 62.1689 1.38525 57.0466 1.38525H18.7249C9.36581 1.38525 1.77734 8.94193 1.77734 18.2618V73.6145L14.741 59.3198V24.1183V24.1183Z" fill="#29BEBE"/>
<path d="M1.77696 75C1.58725 75 1.46078 75 1.27107 74.937C0.701934 74.7481 0.385742 74.1814 0.385742 73.6146V18.262C0.385742 8.1864 8.60658 0 18.7245 0H57.0463C67.1642 0 75.3851 8.1864 75.3851 18.262V35.3275C75.3851 45.403 67.1642 53.5894 57.0463 53.5894H21.8864L2.852 74.5592C2.53581 74.874 2.15638 75 1.77696 75ZM18.6613 2.83375C10.1243 2.83375 3.16818 9.7607 3.16818 18.262V69.9622L20.179 51.1965C20.4319 50.8816 20.8114 50.7557 21.1908 50.7557H56.983C65.5201 50.7557 72.4762 43.8287 72.4762 35.3275V18.262C72.4762 9.7607 65.5201 2.83375 56.983 2.83375H18.6613Z" fill="white"/>
</svg>
