<svg width="112" height="53" viewBox="0 0 112 53" fill="none" xmlns="http://www.w3.org/2000/svg">
<path d="M12.3885 28.572C12.3885 26.3095 12.6778 23.325 14.7506 22.3141L21.0171 17.741V14.8528C21.0171 13.89 21.692 13.0235 22.6561 12.831L27.0909 11.8682C29.0191 11.435 31.0437 11.0499 33.5503 10.6166C41.1666 9.31693 48.9758 12.831 56.7367 12.831L74.7652 13.89L71.5355 9.65389C73.078 9.65389 68.836 8.73927 70.3304 8.93182L68.4504 7.77652C62.9551 3.97364 56.4957 2 49.8917 2H45.6497H42.2753C35.8641 2 29.4529 2.57765 23.1381 3.63668C21.0654 3.97364 19.3782 4.31061 17.7874 4.69571L14.1239 5.51405C13.3526 5.7066 12.7742 6.38053 12.7742 7.19887V9.60575L5.15786 13.3605C3.4707 14.1788 2.362 15.9599 2.4102 17.8373V30.0161C2.4102 31.364 2.94045 32.6156 3.85634 33.5302L8.91781 36.6591L12.3885 28.572Z" fill="#29BEBE"/>
<path d="M21.3549 43.0133C23.6711 43.0133 25.5487 41.1383 25.5487 38.8253C25.5487 36.5123 23.6711 34.6373 21.3549 34.6373C19.0388 34.6373 17.1611 36.5123 17.1611 38.8253C17.1611 41.1383 19.0388 43.0133 21.3549 43.0133Z" fill="#047E97"/>
<path d="M92.0703 43.0133C94.3864 43.0133 96.264 41.1383 96.264 38.8253C96.264 36.5123 94.3864 34.6373 92.0703 34.6373C89.7541 34.6373 87.8765 36.5123 87.8765 38.8253C87.8765 41.1383 89.7541 43.0133 92.0703 43.0133Z" fill="#047E97"/>
<path d="M109.665 29.2459C108.653 21.8327 102.627 16.1525 95.1557 15.4785L78.6698 13.89L68.4022 7.68024C62.9551 3.97364 56.4957 2 49.8917 2H45.6497H42.2753C35.8641 2 29.4529 2.57765 23.1381 3.63668C21.0654 3.97364 19.3782 4.31061 17.7874 4.69571L14.1239 5.51405C13.3526 5.7066 12.7742 6.38053 12.7742 7.19887V9.60575L5.15786 13.3605C3.4707 14.1788 2.362 15.9599 2.4102 17.8373V30.0161C2.4102 31.364 2.94045 32.6156 3.85634 33.5302L9.35165 39.0179C9.7855 45.4202 15.0398 50.3784 21.451 50.3784C27.4766 50.3784 32.5862 45.9497 33.4057 40.0288H80.4051C81.3692 46.6236 87.4912 51.1967 94.0952 50.2821C99.3977 49.5119 103.592 45.372 104.363 40.0288H106.243C107.062 40.0288 107.785 39.4511 107.93 38.6328L109.665 29.8717C109.713 29.631 109.713 29.4385 109.665 29.2459Z" stroke="#047E97" stroke-width="3.5" stroke-miterlimit="10" stroke-linecap="round" stroke-linejoin="round"/>
<path d="M21.3558 50.5228C27.8251 50.5228 33.0695 45.2856 33.0695 38.8253C33.0695 32.365 27.8251 27.1279 21.3558 27.1279C14.8865 27.1279 9.64209 32.365 9.64209 38.8253C9.64209 45.2856 14.8865 50.5228 21.3558 50.5228Z" stroke="#047E97" stroke-width="3.5" stroke-miterlimit="10" stroke-linecap="round" stroke-linejoin="round"/>
<path d="M92.0701 50.5228C98.5394 50.5228 103.784 45.2856 103.784 38.8253C103.784 32.365 98.5394 27.1279 92.0701 27.1279C85.6008 27.1279 80.3564 32.365 80.3564 38.8253C80.3564 45.2856 85.6008 50.5228 92.0701 50.5228Z" stroke="#047E97" stroke-width="3.5" stroke-miterlimit="10" stroke-linecap="round" stroke-linejoin="round"/>
<path d="M52.4953 38.8253L44.5415 3.82922" stroke="#047E97" stroke-width="3.5" stroke-miterlimit="10" stroke-linecap="round" stroke-linejoin="round"/>
<path d="M23.186 4.84012L24.6322 10.9055L83.2489 14.3232" stroke="#047E97" stroke-width="3.5" stroke-miterlimit="10" stroke-linecap="round" stroke-linejoin="round"/>
<path d="M3.85596 28.572H15.6661" stroke="#047E97" stroke-width="3.5" stroke-miterlimit="10" stroke-linecap="round" stroke-linejoin="round"/>
<path d="M36.0571 28.572H77.3684" stroke="#047E97" stroke-width="3.5" stroke-miterlimit="10" stroke-linecap="round" stroke-linejoin="round"/>
<path d="M97.7583 28.572H108.363" stroke="#047E97" stroke-width="3.5" stroke-miterlimit="10" stroke-linecap="round" stroke-linejoin="round"/>
<path d="M99.3979 20.4367H105.472" stroke="#047E97" stroke-width="3.5" stroke-miterlimit="10" stroke-linecap="round" stroke-linejoin="round"/>
</svg>
