<svg width="43" height="75" viewBox="0 0 43 75" fill="none" xmlns="http://www.w3.org/2000/svg">
<path d="M23.5353 36.893H18.0936C16.1042 36.893 14.8169 34.7371 15.7531 32.9891L33.1314 1.05835L29.9717 1.93237L1.06641 42.0206L2.8803 43.8851H9.96036L10.1359 43.5938L17.2745 43.1859L9.66779 72.145L13.6467 73.2521L26.8121 42.4284C28.1579 39.6316 25.8759 36.893 23.5353 36.893Z" fill="#29BEBE"/>
<path d="M12.4777 75C12.0681 75 11.6585 74.9417 11.2489 74.7669C9.84457 74.1843 9.14242 72.7276 9.43498 71.2709L15.3448 45.2835H3.64221C2.35493 45.2835 1.18467 44.5842 0.599544 43.4189C0.0144159 42.2535 0.131442 40.9134 0.892109 39.8646L28.9783 1.29133C29.856 0.0677083 31.4358 -0.340166 32.7816 0.300779C34.1274 0.941724 34.8296 2.39842 34.4785 3.85511L27.9836 28.9102H39.0425C40.3298 28.9102 41.5 29.5512 42.1437 30.6583C42.7873 31.7653 42.7288 33.1638 41.9681 34.2126L15.1107 73.6598C14.4086 74.4756 13.4724 75 12.4777 75ZM31.3773 2.45668C31.2603 2.45668 31.1432 2.51495 31.0262 2.68976L2.94006 41.263C2.64749 41.6126 2.82303 42.0205 2.88155 42.137C2.94006 42.2535 3.17411 42.6031 3.64221 42.6031H16.9831C17.3927 42.6031 17.7438 42.778 17.9779 43.0693C18.2119 43.3606 18.3289 43.7685 18.2119 44.1764L11.951 71.7953C11.8925 72.1449 12.0681 72.2614 12.2436 72.378C12.4191 72.4362 12.6532 72.4945 12.8287 72.2031L39.6861 32.7559C39.9202 32.348 39.8031 31.9984 39.7446 31.8819C39.6861 31.7654 39.4521 31.474 39.0425 31.474H38.984H26.2867C25.8771 31.474 25.526 31.2992 25.2335 30.9496C24.9994 30.6583 24.8824 30.1921 24.9994 29.8425L31.9039 3.09763C31.9624 2.74802 31.7869 2.63149 31.6114 2.51495C31.5528 2.51495 31.4943 2.45668 31.3773 2.45668Z" fill="white"/>
</svg>
