<svg width="100" height="26" viewBox="0 0 100 26" fill="none" xmlns="http://www.w3.org/2000/svg">
<path fill-rule="evenodd" clip-rule="evenodd" d="M9.2376 13.8818H5.58862L7.52712 7.58482L9.2376 13.8818ZM3.87831 20.2469L5.0184 16.4095H9.69364L10.8337 20.2469H14.7107L10.6057 5.68327C10.3777 4.72678 9.92166 4.41931 8.89541 4.41931H3.19408V5.72877H3.65029C4.33435 5.72877 4.67654 5.94522 4.67654 6.46898C4.67654 6.79911 4.67654 7.01556 4.33435 7.80127L0.229492 20.2469" fill="white" fill-opacity="0.5"/>
<path d="M19.6138 20.2955V5.62913C19.6138 4.86642 19.1576 4.46777 18.3593 4.46777H14.8247V5.77723H15.0527C15.737 5.77723 16.079 6.06203 16.079 6.6768V20.2953L19.6138 20.2955ZM25.9992 20.2955V5.62913C25.9992 4.86642 25.5431 4.46777 24.7447 4.46777H21.2101V5.77723H21.4381C22.1223 5.77723 22.4644 6.06203 22.4644 6.6768V20.2953" fill="white" fill-opacity="0.5"/>
<path fill-rule="evenodd" clip-rule="evenodd" d="M32.4986 5.82003C32.4986 4.77236 31.7005 4.15759 30.4462 4.15759C29.0778 4.15759 28.3937 4.77236 28.3937 5.82003C28.3937 6.89037 29.0778 7.51655 30.4462 7.51655C31.7005 7.51655 32.4986 6.8902 32.4986 5.82003ZM32.3845 20.2469V9.56621C32.3845 8.82601 31.9285 8.39344 31.2444 8.39344H27.7095V9.68006H27.9377C28.6217 9.68006 28.8497 9.96469 28.8497 10.6137V20.2469H32.3845ZM40.8224 14.4968V16.8651C40.1382 17.5482 39.3401 17.9355 38.6559 17.9355C37.9719 17.9355 37.6297 17.6052 37.6297 16.717C37.6297 15.7379 37.8578 15.3621 38.6559 15.0546C39.226 14.8155 39.7962 14.6675 40.8224 14.4968ZM35.8053 11.6612L36.1474 11.5245C37.0596 11.1601 37.6297 11.0236 38.3139 10.8982C38.6559 10.8528 39.1121 10.8072 39.3401 10.8072C40.4802 10.8072 40.8224 11.183 40.8224 12.2305V12.5267C39.2261 12.7886 38.7699 12.8797 37.8578 13.0731C37.3904 13.1888 36.9329 13.3412 36.4894 13.5287C35.0071 14.1208 34.323 15.2595 34.323 17.0472C34.323 19.2903 35.2351 20.3606 37.2876 20.3606C38.0859 20.3606 38.8839 20.1784 39.4542 19.814C40.0242 19.5521 40.2524 19.4155 40.9364 18.7894V19.1538C40.9364 19.8938 41.2785 20.2469 41.9627 20.2469H45.3835V19.0285H45.2695C44.5853 19.0285 44.2432 18.721 44.2432 18.1061V12.2876C44.2432 9.25858 43.217 8.23391 40.2524 8.23391C39.2261 8.23391 38.3139 8.34777 37.4016 8.56405C36.4894 8.78033 36.0334 8.93986 35.0071 9.47503L35.8053 11.6612ZM50.7426 20.2471V12.2078C51.5409 11.4676 52.1109 11.183 52.9091 11.183C53.7072 11.183 53.9354 11.5245 53.9354 12.7316V20.2468H57.47V12.1625C57.47 10.5 57.242 9.7825 56.786 9.15631C56.2159 8.54138 55.5315 8.25675 54.5054 8.25675C53.1372 8.25675 52.1109 8.75783 50.5146 10.1356V9.49787C50.5146 8.75783 50.1726 8.39344 49.4883 8.39344H46.0676V9.68006H46.1816C46.8658 9.68006 47.2078 9.96469 47.2078 10.6137V20.2469" fill="white" fill-opacity="0.5"/>
<path d="M68.4174 17.9797H63.1723L68.1893 10.8288V8.39199H60.6637C59.7515 8.39199 59.4094 8.7564 59.4094 9.63317V11.7853H60.6637V11.5461C60.6637 10.8971 61.0058 10.6352 61.6899 10.6352H64.4265L59.2954 17.786V20.2456H68.4174" fill="white" fill-opacity="0.5"/>
<path fill-rule="evenodd" clip-rule="evenodd" d="M88.5991 19.5966V6.18296C88.5991 5.10123 88.143 4.74823 87.1168 4.74823H84.0381V6.22856H84.3802C84.9503 6.22856 85.1783 6.44486 85.1783 7.10529V19.5966H88.5991ZM90.4234 19.5966H93.7302V9.47374C93.7302 8.44894 93.2742 8.03901 92.248 8.03901H90.4234V19.5966ZM83.3539 19.5966V8.03901H81.5295C80.5033 8.03901 80.0472 8.44894 80.0472 9.47374V19.5966H83.3539ZM97.6071 12.8556C97.6071 19.1297 93.0461 23.7071 86.8887 23.7071C80.7313 23.7071 76.1703 19.1297 76.1703 12.8556C76.1703 6.58155 80.7313 2.00406 86.8887 2.00406C93.0461 2.00406 97.6071 6.58155 97.6071 12.8556ZM99.7736 12.8556C99.7736 5.5112 94.3003 -1.52588e-05 86.8887 -1.52588e-05C79.5911 -1.52588e-05 74.0039 5.5112 74.0039 12.8556C74.0039 20.2228 79.5911 25.734 86.8887 25.734C94.3003 25.734 99.7736 20.2228 99.7736 12.8556Z" fill="white" fill-opacity="0.5"/>
</svg>
