<svg width="188" height="26" viewBox="0 0 188 26" fill="none" xmlns="http://www.w3.org/2000/svg">
<path d="M2.64525 24.6243V11.3462H0.302246V7.71957H2.64525V5.73078C2.64525 3.6835 3.17242 2.22115 4.22677 1.34375C5.28112 0.466341 6.68692 0.0568848 8.44417 0.0568848H10.3186V3.80049H9.14707C8.3856 3.80049 7.85842 3.97597 7.56555 4.26844C7.27267 4.56091 7.09695 5.08735 7.09695 5.78928V7.77807H10.7286V11.3462H7.09695V24.6243H2.64525Z" fill="white"/>
<path d="M16.0597 5.08906C15.2396 5.08906 14.5953 4.85508 14.0681 4.38713C13.5409 3.91918 13.3066 3.33425 13.3066 2.57383C13.3066 1.81341 13.5409 1.22847 14.0681 0.760519C14.5953 0.292568 15.2396 0.0585938 16.0597 0.0585938C16.8797 0.0585938 17.524 0.292568 18.0512 0.760519C18.5784 1.22847 18.8127 1.81341 18.8127 2.57383C18.8127 3.33425 18.5784 3.91918 18.0512 4.38713C17.524 4.85508 16.8797 5.08906 16.0597 5.08906ZM13.8924 24.626V7.72128H18.2855V24.626H13.8924V24.626Z" fill="white"/>
<path d="M29.5901 25.0353C28.0086 25.0353 26.5442 24.6259 25.3141 23.8655C24.084 23.105 23.0883 22.0522 22.3268 20.7068C21.6239 19.3614 21.2139 17.8406 21.2139 16.1443C21.2139 14.448 21.5653 12.9271 22.3268 11.5818C23.0297 10.2364 24.0255 9.18352 25.3141 8.4231C26.5442 7.66269 28.0086 7.25323 29.5901 7.25323C30.8787 7.25323 31.9917 7.4872 32.9289 7.95515C33.8661 8.4231 34.6861 9.12503 35.2719 9.94394V0H39.665V24.5674H35.799L35.3304 22.1691C34.8033 22.9296 34.0418 23.573 33.1632 24.1579C32.226 24.7429 31.0545 25.0353 29.5901 25.0353ZM30.5273 21.2332C31.9331 21.2332 33.1046 20.7653 33.9832 19.8294C34.8618 18.8935 35.3304 17.6651 35.3304 16.2028C35.3304 14.7404 34.8618 13.5121 33.9832 12.5762C33.1046 11.6403 31.9331 11.1723 30.5273 11.1723C29.1215 11.1723 28.0086 11.6403 27.0714 12.5762C26.1342 13.5121 25.7241 14.7404 25.7241 16.2028C25.7241 17.6651 26.1927 18.8935 27.0714 19.8294C27.95 20.7653 29.1215 21.2332 30.5273 21.2332Z" fill="white"/>
<path d="M50.8527 25.0352C49.2126 25.0352 47.7482 24.6843 46.401 23.9239C45.1123 23.1634 44.058 22.1106 43.2965 20.8237C42.535 19.4783 42.125 17.9575 42.125 16.2027C42.125 14.4479 42.535 12.927 43.2965 11.5817C44.058 10.2363 45.1123 9.18342 46.401 8.4815C47.6896 7.72108 49.2126 7.37012 50.7941 7.37012C52.4342 7.37012 53.8986 7.72108 55.1872 8.4815C56.4759 9.24192 57.5302 10.2948 58.2917 11.5817C59.0532 12.927 59.4632 14.4479 59.4632 16.2027C59.4632 17.9575 59.0532 19.4783 58.2917 20.8237C57.5302 22.169 56.4759 23.2219 55.1872 23.9239C53.9572 24.6843 52.4928 25.0352 50.8527 25.0352ZM50.8527 21.2331C51.9656 21.2331 52.9614 20.8237 53.84 19.9463C54.6601 19.0689 55.1287 17.8405 55.1287 16.1442C55.1287 14.4479 54.7186 13.2195 53.84 12.3421C53.02 11.4647 52.0242 11.0552 50.9113 11.0552C49.7398 11.0552 48.744 11.4647 47.9239 12.3421C47.1039 13.2195 46.6939 14.4479 46.6939 16.1442C46.6939 17.8405 47.1039 19.0689 47.9239 19.9463C48.744 20.8237 49.7397 21.2331 50.8527 21.2331Z" fill="white"/>
<path d="M71.6472 24.626V11.3479H69.3042V7.72128H71.6472V5.73249C71.6472 3.68521 72.1744 2.22286 73.2287 1.34546C74.2831 0.46805 75.6889 0.0585938 77.4461 0.0585938H79.3205V3.8022H78.149C77.3876 3.8022 76.8604 3.97768 76.5675 4.27015C76.2746 4.56261 76.0989 5.08906 76.0989 5.79098V7.77977H79.7306V11.3479H76.0989V24.626H71.6472Z" fill="white"/>
<path d="M85.0606 5.08906C84.2406 5.08906 83.5963 4.85508 83.0691 4.38713C82.5419 3.91918 82.3076 3.33425 82.3076 2.57383C82.3076 1.81341 82.5419 1.22847 83.0691 0.760519C83.5963 0.292568 84.2406 0.0585938 85.0606 0.0585938C85.8807 0.0585938 86.525 0.292568 87.0522 0.760519C87.5794 1.22847 87.8137 1.81341 87.8137 2.57383C87.8137 3.33425 87.5794 3.91918 87.0522 4.38713C86.525 4.85508 85.8807 5.08906 85.0606 5.08906ZM82.8934 24.626V7.72128H87.2865V24.626H82.8934V24.626Z" fill="white"/>
<path d="M90.8008 24.6259V7.72122H94.6667L95.0182 10.5874C95.5454 9.59303 96.3068 8.77411 97.3026 8.18917C98.2984 7.60424 99.4699 7.31177 100.817 7.31177C102.926 7.31177 104.566 7.9552 105.679 9.30056C106.792 10.6459 107.436 12.5762 107.436 15.0914V24.6259H103.043V15.5009C103.043 14.0386 102.75 12.9272 102.164 12.1668C101.579 11.4063 100.641 10.9969 99.4113 10.9969C98.1812 10.9969 97.1855 11.4063 96.3654 12.2837C95.5454 13.1611 95.1939 14.331 95.1939 15.9104V24.6259H90.8008Z" fill="white"/>
<path d="M117.101 25.0353C115.637 25.0353 114.465 24.8013 113.528 24.3334C112.591 23.8654 111.888 23.222 111.419 22.4616C110.951 21.7011 110.716 20.8237 110.716 19.8878C110.716 18.3085 111.302 17.0216 112.532 16.0857C113.762 15.0913 115.578 14.6234 118.038 14.6234H122.314V14.2139C122.314 13.0441 121.963 12.2251 121.318 11.6402C120.674 11.1138 119.854 10.8213 118.858 10.8213C117.98 10.8213 117.218 11.0553 116.515 11.4647C115.871 11.8742 115.461 12.5176 115.285 13.3365H111.009C111.126 12.1082 111.536 11.0553 112.239 10.1194C112.942 9.18347 113.879 8.54004 115.051 8.01359C116.164 7.54564 117.452 7.25317 118.858 7.25317C121.26 7.25317 123.193 7.83811 124.54 9.06648C125.946 10.2948 126.649 11.9912 126.649 14.1554V24.5673H122.9L122.666 21.8766C122.138 22.8125 121.436 23.5144 120.557 24.0994C119.62 24.7428 118.507 25.0353 117.101 25.0353ZM118.038 21.6426C119.268 21.6426 120.264 21.2332 120.967 20.4143C121.67 19.5954 122.08 18.601 122.256 17.3726H118.565C117.394 17.3726 116.574 17.6066 116.047 18.016C115.519 18.4255 115.285 18.9519 115.285 19.5954C115.285 20.2388 115.519 20.7652 116.047 21.1162C116.574 21.4672 117.218 21.6426 118.038 21.6426Z" fill="white"/>
<path d="M130.574 24.6259V7.72122H134.44L134.791 10.5874C135.318 9.59303 136.08 8.77411 137.076 8.18917C138.071 7.60424 139.243 7.31177 140.59 7.31177C142.699 7.31177 144.339 7.9552 145.452 9.30056C146.565 10.6459 147.209 12.5762 147.209 15.0914V24.6259H142.816V15.5009C142.816 14.0386 142.523 12.9272 141.937 12.1668C141.352 11.4063 140.414 10.9969 139.184 10.9969C137.954 10.9969 136.958 11.4063 136.138 12.2837C135.318 13.1611 134.967 14.331 134.967 15.9104V24.6259H130.574Z" fill="white"/>
<path d="M159.334 25.0353C157.577 25.0353 156.054 24.6843 154.765 23.9239C153.418 23.1635 152.422 22.1106 151.661 20.7652C150.899 19.4199 150.489 17.899 150.489 16.1442C150.489 14.3894 150.899 12.8686 151.661 11.5232C152.422 10.1779 153.477 9.12498 154.765 8.36456C156.112 7.60414 157.635 7.25317 159.334 7.25317C161.501 7.25317 163.317 7.83811 164.782 8.94949C166.246 10.0609 167.183 11.6402 167.593 13.629H162.966C162.731 12.8101 162.263 12.1667 161.619 11.6987C160.974 11.2308 160.154 10.9968 159.217 10.9968C157.987 10.9968 156.991 11.4647 156.171 12.3421C155.351 13.278 154.882 14.5064 154.882 16.1442C154.882 17.7821 155.292 19.0104 156.171 19.9463C156.991 20.8822 158.045 21.2917 159.217 21.2917C160.154 21.2917 160.916 21.0577 161.619 20.5898C162.263 20.1218 162.731 19.4784 162.966 18.6595H167.593C167.183 20.5898 166.246 22.1106 164.782 23.2805C163.317 24.4503 161.501 25.0353 159.334 25.0353Z" fill="white"/>
<path d="M179.424 25.0353C177.726 25.0353 176.203 24.6843 174.856 23.9239C173.508 23.222 172.513 22.1691 171.751 20.8822C170.99 19.5369 170.638 18.016 170.638 16.3197C170.638 14.5649 170.99 12.9856 171.751 11.6402C172.513 10.2949 173.508 9.24196 174.797 8.42305C176.086 7.66263 177.667 7.25317 179.424 7.25317C181.065 7.25317 182.529 7.60414 183.818 8.36456C185.106 9.06648 186.102 10.0609 186.805 11.3477C187.508 12.6346 187.859 14.0385 187.859 15.5593C187.859 15.7933 187.859 16.0857 187.859 16.3197C187.859 16.6122 187.859 16.9046 187.801 17.1971H174.914C175.031 18.5425 175.441 19.5369 176.32 20.2973C177.14 21.0577 178.136 21.4087 179.366 21.4087C180.244 21.4087 181.006 21.2332 181.592 20.8237C182.177 20.4143 182.646 19.8878 182.939 19.2444H187.391C187.098 20.2973 186.571 21.2917 185.809 22.1691C185.048 23.0465 184.169 23.7484 183.056 24.2164C182.002 24.8013 180.772 25.0353 179.424 25.0353ZM179.424 10.8798C178.37 10.8798 177.433 11.1723 176.613 11.7572C175.793 12.3421 175.266 13.278 175.031 14.5064H183.466C183.408 13.395 182.998 12.5176 182.236 11.8742C181.475 11.1723 180.537 10.8798 179.424 10.8798Z" fill="white"/>
</svg>
