<svg width="104" height="87" viewBox="0 0 104 87" fill="none" xmlns="http://www.w3.org/2000/svg">
<path d="M7.11611 62.124C7.11611 58.8506 8.0802 55.8661 9.71915 53.5555C12.9489 48.9824 14.2022 43.1577 13.6719 37.4293C13.5755 36.5629 13.5273 35.6964 13.5273 34.8299C13.5273 20.9663 17.2391 10.3278 37.0029 10.3278C38.6901 10.3278 40.2808 10.4241 41.727 10.6167C39.0275 9.55763 35.7496 8.97998 31.7486 8.97998C12.033 8.97998 8.27302 19.6184 8.27302 33.4821C8.27302 34.3485 8.32122 35.2631 8.41763 36.0815C8.99609 41.8099 7.69456 47.6345 4.46486 52.2076C2.82591 54.5182 1.86182 57.5027 1.86182 60.7761C1.86182 66.8896 5.28434 68.2374 9.86377 68.4781C8.17661 67.4191 7.11611 65.4936 7.11611 62.124Z" fill="#29BEBE"/>
<path d="M44.1376 59.4283C44.1376 57.4065 44.3304 55.481 44.716 53.6999C42.8843 54.8071 40.9561 55.5773 38.9315 55.9143C38.8833 56.4919 38.8833 57.0214 38.8833 57.5991C38.8833 65.9269 42.3058 67.708 46.8853 68.0931C45.1981 66.6008 44.1376 64.0014 44.1376 59.4283Z" fill="#29BEBE"/>
<path d="M66.9387 35.6001L70.6986 27.7055C69.0115 25.2986 68.0474 22.4585 68.0474 19.3777C68.0474 10.6166 79.8575 3.396 90.125 6.33239C93.2101 7.19887 95.7168 8.83555 97.6449 10.6166C94.4152 6.28426 88.9199 3.44413 82.6533 3.44413C72.7232 3.44413 64.6731 10.5685 64.6731 19.3296C64.6731 22.3622 65.6371 25.2024 67.3243 27.6574L63.1787 37.4293L66.9387 35.6001Z" fill="#29BEBE"/>
<path d="M46.7896 25.6837V44.4093C46.7896 51.4374 41.1015 57.1176 34.0637 57.1176H27.8935C20.8556 57.1176 15.1675 51.4374 15.1675 44.4093V25.6837H18.6382C19.1685 25.6837 19.6505 25.9244 20.0361 26.3095C22.6392 29.1496 34.2565 40.1732 46.7896 25.6837Z" stroke="#047E97" stroke-width="3.5" stroke-miterlimit="10" stroke-linecap="round" stroke-linejoin="round"/>
<path d="M53.3928 34.878C53.441 34.1078 53.441 33.3376 53.3928 32.5674C52.959 19.8591 49.0544 9.02808 31.7008 9.02808C11.9851 9.02808 8.22517 19.6665 8.22517 33.5302C8.22517 34.3966 8.27337 35.3112 8.36978 36.1296C8.94824 41.858 7.64671 47.6826 4.41701 52.2557C2.77806 54.5663 1.81396 57.5508 1.81396 60.8242C1.81396 68.0449 6.58621 68.6225 12.419 68.6225C18.2999 68.6225 23.024 68.0449 23.024 60.8242C23.024 59.2357 22.7829 57.6953 22.3491 56.2511C24.9521 57.4064 27.7962 58.0322 30.7849 58.0322C33.8218 58.0322 36.714 57.3583 39.4135 56.203C39.0279 57.5509 38.835 58.9468 38.835 60.4391C38.835 67.6598 43.6073 68.2374 49.44 68.2374C55.2728 68.2374 60.045 67.6598 60.045 60.4391C60.045 57.3583 59.1774 54.5182 57.7312 52.2557C54.5015 47.2013 53.1036 41.0396 53.3928 34.878Z" stroke="#047E97" stroke-width="3.5" stroke-miterlimit="10" stroke-linecap="round" stroke-linejoin="round"/>
<path d="M34.8341 49.8007H30.5439C29.7727 49.8007 29.146 49.1749 29.146 48.4047V48.1159C29.146 47.3457 29.7727 46.7199 30.5439 46.7199H34.8341C35.6054 46.7199 36.2321 47.3457 36.2321 48.1159V48.4047C36.2321 49.1749 35.6054 49.8007 34.8341 49.8007Z" stroke="#047E97" stroke-width="3.5" stroke-miterlimit="10" stroke-linecap="round" stroke-linejoin="round"/>
<path d="M34.1113 48.2603C34.1113 48.2603 48.3317 50.1377 46.7891 34.5411" stroke="#047E97" stroke-width="3.5" stroke-miterlimit="10" stroke-linecap="round" stroke-linejoin="round"/>
<path d="M59.6124 84.2672C59.6124 84.2672 60.4318 68.093 51.8032 68.093" stroke="#047E97" stroke-width="3.5" stroke-miterlimit="10" stroke-linecap="round" stroke-linejoin="round"/>
<path d="M19.4575 67.6116L25.1457 73.7732C28.52 77.3836 34.2563 77.3836 37.6306 73.7251L42.8367 68.093" stroke="#047E97" stroke-width="3.5" stroke-miterlimit="10" stroke-linecap="round" stroke-linejoin="round"/>
<path d="M92.4869 34.0115C89.4983 35.4075 86.1239 36.4666 82.4604 36.4666C78.5076 36.4666 74.8923 35.4075 71.8072 33.6746L61.395 38.7772L65.878 28.235C64.0463 25.6356 63.034 22.5548 63.034 19.2333C63.034 9.70203 71.759 2 82.5086 2C93.2582 2 101.983 9.70203 101.983 19.2333C101.935 21.9771 101.501 29.8236 92.4869 34.0115Z" stroke="#047E97" stroke-width="3.5" stroke-miterlimit="10" stroke-linecap="round" stroke-linejoin="round"/>
</svg>
