<svg width="94" height="86" viewBox="0 0 94 86" fill="none" xmlns="http://www.w3.org/2000/svg">
<path d="M45.9528 24.047C45.9528 20.4848 48.7005 17.5484 52.2194 17.2596C51.4963 16.9708 50.7251 16.8264 49.8574 16.8264C46.0974 16.8264 43.0605 19.8591 43.0605 23.6138C43.0605 27.3685 46.0974 30.4012 49.8574 30.4012C50.0502 30.4012 50.243 30.4012 50.4358 30.3531C47.7846 29.4384 45.9528 26.9834 45.9528 24.047Z" fill="#29BEBE"/>
<path d="M45.9532 60.0059V43.9279C45.9532 40.5101 48.749 37.67 52.2198 37.67H52.5572C51.8823 37.4293 51.1593 37.2849 50.388 37.2849H49.2793C45.8568 37.2849 43.0127 40.0769 43.0127 43.5428V59.6208C43.0127 63.0385 45.8086 65.8787 49.2793 65.8787H50.0024C47.6403 64.9641 45.9532 62.7016 45.9532 60.0059Z" fill="#29BEBE"/>
<path d="M11.1488 79.0684L20.163 60.054C16.1621 54.2775 13.8482 47.442 13.8482 40.125C13.8482 19.0889 42.1925 1.85559 66.7768 8.88369C74.2003 11.0017 80.1295 14.8528 84.8053 19.1851C77.0926 8.83555 63.8845 2 48.8447 2C25.0799 2.04814 5.79809 19.137 5.79809 40.1732C5.79809 47.4901 8.11191 54.2775 12.1129 60.1022L2.23096 83.4489L11.1488 79.0684Z" fill="#29BEBE"/>
<path d="M87.3601 57.1655C90.2524 52.0629 91.8914 46.2864 91.8914 40.1729C91.8914 19.1367 72.6096 2.04785 48.8447 2.04785C25.0799 2.04785 5.79809 19.1367 5.79809 40.1729C5.79809 47.4898 8.11191 54.2772 12.1129 60.1019L2.23096 83.4486L25.2727 72.0882C32.0213 76.0354 40.1197 78.2979 48.8447 78.2979C56.9431 78.2979 64.5112 76.3243 70.9706 72.8584" stroke="#047E97" stroke-width="3.5" stroke-miterlimit="10" stroke-linecap="round" stroke-linejoin="round"/>
<path d="M49.2789 65.8787H47.2543C44.0728 65.8787 41.4697 63.2792 41.4697 60.1022V43.0614C41.4697 39.8843 44.0728 37.2849 47.2543 37.2849H49.2789C52.4604 37.2849 55.0634 39.8843 55.0634 43.0614V60.1022C55.0634 63.2792 52.4604 65.8787 49.2789 65.8787Z" stroke="#047E97" stroke-width="3.5" stroke-miterlimit="10" stroke-linecap="round" stroke-linejoin="round"/>
<path d="M48.2666 30.4494C52.0204 30.4494 55.0634 27.4106 55.0634 23.662C55.0634 19.9134 52.0204 16.8746 48.2666 16.8746C44.5128 16.8746 41.4697 19.9134 41.4697 23.662C41.4697 27.4106 44.5128 30.4494 48.2666 30.4494Z" stroke="#047E97" stroke-width="3.5" stroke-miterlimit="10" stroke-linecap="round" stroke-linejoin="round"/>
</svg>
