<svg width="279" height="75" viewBox="0 0 279 75" fill="none" xmlns="http://www.w3.org/2000/svg">
<path d="M110.195 31.264C108.67 31.264 107.335 30.9267 106.191 30.252C105.047 29.5773 104.152 28.646 103.507 27.458C102.862 26.2553 102.539 24.8693 102.539 23.3C102.539 21.7307 102.862 20.352 103.507 19.164C104.152 17.9613 105.047 17.0227 106.191 16.348C107.335 15.6733 108.67 15.336 110.195 15.336C111.72 15.336 113.055 15.6733 114.199 16.348C115.343 17.0227 116.23 17.9613 116.861 19.164C117.506 20.352 117.829 21.7307 117.829 23.3C117.829 24.8693 117.506 26.2553 116.861 27.458C116.23 28.646 115.343 29.5773 114.199 30.252C113.055 30.9267 111.72 31.264 110.195 31.264ZM110.195 29.174C111.251 29.174 112.168 28.9393 112.945 28.47C113.737 28.0007 114.353 27.326 114.793 26.446C115.233 25.566 115.453 24.5173 115.453 23.3C115.453 22.0827 115.233 21.034 114.793 20.154C114.353 19.274 113.737 18.5993 112.945 18.13C112.168 17.6607 111.251 17.426 110.195 17.426C109.139 17.426 108.215 17.6607 107.423 18.13C106.631 18.5993 106.015 19.274 105.575 20.154C105.15 21.034 104.937 22.0827 104.937 23.3C104.937 24.5173 105.15 25.566 105.575 26.446C106.015 27.326 106.631 28.0007 107.423 28.47C108.215 28.9393 109.139 29.174 110.195 29.174ZM124.365 31.264C123.045 31.264 122.003 30.8533 121.241 30.032C120.493 29.2107 120.119 27.986 120.119 26.358V20.088H122.451V26.116C122.451 28.228 123.316 29.284 125.047 29.284C125.912 29.284 126.623 28.976 127.181 28.36C127.738 27.744 128.017 26.864 128.017 25.72V20.088H130.349V31H128.281L128.105 29.086C127.767 29.7607 127.269 30.296 126.609 30.692C125.963 31.0733 125.215 31.264 124.365 31.264ZM133.315 31V20.088H135.405L135.603 22.156C135.985 21.4373 136.513 20.8727 137.187 20.462C137.877 20.0367 138.705 19.824 139.673 19.824V22.266H139.035C138.39 22.266 137.811 22.376 137.297 22.596C136.799 22.8013 136.395 23.1607 136.087 23.674C135.794 24.1727 135.647 24.8693 135.647 25.764V31H133.315ZM152.32 31.264C151.249 31.264 150.296 31.0293 149.46 30.56C148.638 30.076 147.993 29.4087 147.524 28.558C147.054 27.7073 146.82 26.7173 146.82 25.588C146.82 24.444 147.047 23.4393 147.502 22.574C147.971 21.7087 148.616 21.034 149.438 20.55C150.274 20.066 151.242 19.824 152.342 19.824C153.412 19.824 154.344 20.066 155.136 20.55C155.928 21.0193 156.544 21.65 156.984 22.442C157.424 23.234 157.644 24.1067 157.644 25.06C157.644 25.2067 157.636 25.368 157.622 25.544C157.622 25.7053 157.614 25.8887 157.6 26.094H149.108C149.181 27.15 149.526 27.9567 150.142 28.514C150.772 29.0567 151.498 29.328 152.32 29.328C152.98 29.328 153.53 29.1813 153.97 28.888C154.424 28.58 154.762 28.1693 154.982 27.656H157.314C157.02 28.6827 156.434 29.5407 155.554 30.23C154.688 30.9193 153.61 31.264 152.32 31.264ZM152.32 21.738C151.542 21.738 150.853 21.9727 150.252 22.442C149.65 22.8967 149.284 23.586 149.152 24.51H155.312C155.268 23.6593 154.967 22.9847 154.41 22.486C153.852 21.9873 153.156 21.738 152.32 21.738ZM158.363 31L162.235 25.544L158.363 20.088H160.849L163.775 24.268L166.679 20.088H169.187L165.315 25.544L169.187 31H166.679L163.775 26.82L160.849 31H158.363ZM171.085 35.84V20.088H173.175L173.417 21.782C173.769 21.2687 174.253 20.814 174.869 20.418C175.485 20.022 176.277 19.824 177.245 19.824C178.301 19.824 179.232 20.0733 180.039 20.572C180.846 21.0707 181.476 21.7527 181.931 22.618C182.4 23.4833 182.635 24.466 182.635 25.566C182.635 26.666 182.4 27.6487 181.931 28.514C181.476 29.3647 180.846 30.0393 180.039 30.538C179.232 31.022 178.294 31.264 177.223 31.264C176.372 31.264 175.617 31.0953 174.957 30.758C174.312 30.4207 173.798 29.944 173.417 29.328V35.84H171.085ZM176.827 29.24C177.824 29.24 178.646 28.9027 179.291 28.228C179.936 27.5387 180.259 26.644 180.259 25.544C180.259 24.8253 180.112 24.1873 179.819 23.63C179.526 23.0727 179.122 22.64 178.609 22.332C178.096 22.0093 177.502 21.848 176.827 21.848C175.83 21.848 175.008 22.1927 174.363 22.882C173.732 23.5713 173.417 24.4587 173.417 25.544C173.417 26.644 173.732 27.5387 174.363 28.228C175.008 28.9027 175.83 29.24 176.827 29.24ZM190.261 31.264C189.19 31.264 188.237 31.0293 187.401 30.56C186.58 30.076 185.934 29.4087 185.465 28.558C184.996 27.7073 184.761 26.7173 184.761 25.588C184.761 24.444 184.988 23.4393 185.443 22.574C185.912 21.7087 186.558 21.034 187.379 20.55C188.215 20.066 189.183 19.824 190.283 19.824C191.354 19.824 192.285 20.066 193.077 20.55C193.869 21.0193 194.485 21.65 194.925 22.442C195.365 23.234 195.585 24.1067 195.585 25.06C195.585 25.2067 195.578 25.368 195.563 25.544C195.563 25.7053 195.556 25.8887 195.541 26.094H187.049C187.122 27.15 187.467 27.9567 188.083 28.514C188.714 29.0567 189.44 29.328 190.261 29.328C190.921 29.328 191.471 29.1813 191.911 28.888C192.366 28.58 192.703 28.1693 192.923 27.656H195.255C194.962 28.6827 194.375 29.5407 193.495 30.23C192.63 30.9193 191.552 31.264 190.261 31.264ZM190.261 21.738C189.484 21.738 188.794 21.9727 188.193 22.442C187.592 22.8967 187.225 23.586 187.093 24.51H193.253C193.209 23.6593 192.908 22.9847 192.351 22.486C191.794 21.9873 191.097 21.738 190.261 21.738ZM198.005 31V20.088H200.095L200.293 22.156C200.674 21.4373 201.202 20.8727 201.877 20.462C202.566 20.0367 203.395 19.824 204.363 19.824V22.266H203.725C203.079 22.266 202.5 22.376 201.987 22.596C201.488 22.8013 201.085 23.1607 200.777 23.674C200.483 24.1727 200.337 24.8693 200.337 25.764V31H198.005ZM210.938 31C209.868 31 209.017 30.7433 208.386 30.23C207.756 29.702 207.44 28.7707 207.44 27.436V22.046H205.57V20.088H207.44L207.726 17.316H209.772V20.088H212.852V22.046H209.772V27.436C209.772 28.0373 209.897 28.4553 210.146 28.69C210.41 28.91 210.858 29.02 211.488 29.02H212.742V31H210.938ZM219.613 31.264C218.234 31.264 217.097 30.9267 216.203 30.252C215.308 29.5773 214.795 28.6827 214.663 27.568H217.017C217.134 28.0667 217.413 28.4993 217.853 28.866C218.293 29.218 218.872 29.394 219.591 29.394C220.295 29.394 220.808 29.2473 221.131 28.954C221.453 28.6607 221.615 28.3233 221.615 27.942C221.615 27.3847 221.387 27.0107 220.933 26.82C220.493 26.6147 219.877 26.4313 219.085 26.27C218.469 26.138 217.853 25.962 217.237 25.742C216.635 25.522 216.129 25.214 215.719 24.818C215.323 24.4073 215.125 23.8573 215.125 23.168C215.125 22.2147 215.491 21.4227 216.225 20.792C216.958 20.1467 217.985 19.824 219.305 19.824C220.522 19.824 221.505 20.1173 222.253 20.704C223.015 21.2907 223.463 22.1193 223.595 23.19H221.351C221.277 22.7207 221.057 22.354 220.691 22.09C220.339 21.826 219.862 21.694 219.261 21.694C218.674 21.694 218.219 21.8187 217.897 22.068C217.574 22.3027 217.413 22.6107 217.413 22.992C217.413 23.3733 217.633 23.674 218.073 23.894C218.527 24.114 219.121 24.312 219.855 24.488C220.588 24.6493 221.263 24.84 221.879 25.06C222.509 25.2653 223.015 25.5733 223.397 25.984C223.778 26.3947 223.969 26.996 223.969 27.788C223.983 28.7853 223.595 29.614 222.803 30.274C222.025 30.934 220.962 31.264 219.613 31.264ZM103.001 53V42.088H105.069L105.267 43.628C105.619 43.0707 106.081 42.6307 106.653 42.308C107.24 41.9853 107.914 41.824 108.677 41.824C110.408 41.824 111.61 42.506 112.285 43.87C112.681 43.2393 113.209 42.7407 113.869 42.374C114.544 42.0073 115.27 41.824 116.047 41.824C117.411 41.824 118.482 42.2347 119.259 43.056C120.036 43.8773 120.425 45.102 120.425 46.73V53H118.093V46.972C118.093 44.86 117.286 43.804 115.673 43.804C114.852 43.804 114.177 44.112 113.649 44.728C113.136 45.344 112.879 46.224 112.879 47.368V53H110.547V46.972C110.547 44.86 109.733 43.804 108.105 43.804C107.298 43.804 106.631 44.112 106.103 44.728C105.59 45.344 105.333 46.224 105.333 47.368V53H103.001ZM126.849 53.264C125.925 53.264 125.163 53.11 124.561 52.802C123.96 52.494 123.513 52.0907 123.219 51.592C122.926 51.0787 122.779 50.5213 122.779 49.92C122.779 48.864 123.19 48.028 124.011 47.412C124.833 46.796 126.006 46.488 127.531 46.488H130.391V46.29C130.391 45.4393 130.157 44.8013 129.687 44.376C129.233 43.9507 128.639 43.738 127.905 43.738C127.26 43.738 126.695 43.8993 126.211 44.222C125.742 44.53 125.456 44.992 125.353 45.608H123.021C123.095 44.816 123.359 44.1413 123.813 43.584C124.283 43.012 124.869 42.5793 125.573 42.286C126.292 41.978 127.077 41.824 127.927 41.824C129.453 41.824 130.633 42.2273 131.469 43.034C132.305 43.826 132.723 44.9113 132.723 46.29V53H130.699L130.501 51.13C130.193 51.7313 129.746 52.2373 129.159 52.648C128.573 53.0587 127.803 53.264 126.849 53.264ZM127.311 51.372C127.942 51.372 128.47 51.2253 128.895 50.932C129.335 50.624 129.673 50.2207 129.907 49.722C130.157 49.2233 130.311 48.6733 130.369 48.072H127.773C126.849 48.072 126.189 48.2333 125.793 48.556C125.412 48.8787 125.221 49.282 125.221 49.766C125.221 50.2647 125.405 50.6607 125.771 50.954C126.153 51.2327 126.666 51.372 127.311 51.372ZM135.442 53V37.16H137.774V46.598L141.954 42.088H144.748L140.106 47.038L145.43 53H142.482L137.774 47.412V53H135.442ZM151.503 53.264C150.433 53.264 149.479 53.0293 148.643 52.56C147.822 52.076 147.177 51.4087 146.707 50.558C146.238 49.7073 146.003 48.7173 146.003 47.588C146.003 46.444 146.231 45.4393 146.685 44.574C147.155 43.7087 147.8 43.034 148.621 42.55C149.457 42.066 150.425 41.824 151.525 41.824C152.596 41.824 153.527 42.066 154.319 42.55C155.111 43.0193 155.727 43.65 156.167 44.442C156.607 45.234 156.827 46.1067 156.827 47.06C156.827 47.2067 156.82 47.368 156.805 47.544C156.805 47.7053 156.798 47.8887 156.783 48.094H148.291C148.365 49.15 148.709 49.9567 149.325 50.514C149.956 51.0567 150.682 51.328 151.503 51.328C152.163 51.328 152.713 51.1813 153.153 50.888C153.608 50.58 153.945 50.1693 154.165 49.656H156.497C156.204 50.6827 155.617 51.5407 154.737 52.23C153.872 52.9193 152.794 53.264 151.503 53.264ZM151.503 43.738C150.726 43.738 150.037 43.9727 149.435 44.442C148.834 44.8967 148.467 45.586 148.335 46.51H154.495C154.451 45.6593 154.151 44.9847 153.593 44.486C153.036 43.9873 152.339 43.738 151.503 43.738ZM166.11 40.02C165.67 40.02 165.303 39.888 165.01 39.624C164.731 39.3453 164.592 39.0007 164.592 38.59C164.592 38.1793 164.731 37.842 165.01 37.578C165.303 37.2993 165.67 37.16 166.11 37.16C166.55 37.16 166.909 37.2993 167.188 37.578C167.481 37.842 167.628 38.1793 167.628 38.59C167.628 39.0007 167.481 39.3453 167.188 39.624C166.909 39.888 166.55 40.02 166.11 40.02ZM164.944 53V42.088H167.276V53H164.944ZM174.93 53C173.86 53 173.009 52.7433 172.378 52.23C171.748 51.702 171.432 50.7707 171.432 49.436V44.046H169.562V42.088H171.432L171.718 39.316H173.764V42.088H176.844V44.046H173.764V49.436C173.764 50.0373 173.889 50.4553 174.138 50.69C174.402 50.91 174.85 51.02 175.48 51.02H176.734V53H174.93ZM189.148 53.264C187.769 53.264 186.633 52.9267 185.738 52.252C184.843 51.5773 184.33 50.6827 184.198 49.568H186.552C186.669 50.0667 186.948 50.4993 187.388 50.866C187.828 51.218 188.407 51.394 189.126 51.394C189.83 51.394 190.343 51.2473 190.666 50.954C190.989 50.6607 191.15 50.3233 191.15 49.942C191.15 49.3847 190.923 49.0107 190.468 48.82C190.028 48.6147 189.412 48.4313 188.62 48.27C188.004 48.138 187.388 47.962 186.772 47.742C186.171 47.522 185.665 47.214 185.254 46.818C184.858 46.4073 184.66 45.8573 184.66 45.168C184.66 44.2147 185.027 43.4227 185.76 42.792C186.493 42.1467 187.52 41.824 188.84 41.824C190.057 41.824 191.04 42.1173 191.788 42.704C192.551 43.2907 192.998 44.1193 193.13 45.19H190.886C190.813 44.7207 190.593 44.354 190.226 44.09C189.874 43.826 189.397 43.694 188.796 43.694C188.209 43.694 187.755 43.8187 187.432 44.068C187.109 44.3027 186.948 44.6107 186.948 44.992C186.948 45.3733 187.168 45.674 187.608 45.894C188.063 46.114 188.657 46.312 189.39 46.488C190.123 46.6493 190.798 46.84 191.414 47.06C192.045 47.2653 192.551 47.5733 192.932 47.984C193.313 48.3947 193.504 48.996 193.504 49.788C193.519 50.7853 193.13 51.614 192.338 52.274C191.561 52.934 190.497 53.264 189.148 53.264ZM197.37 40.02C196.93 40.02 196.563 39.888 196.27 39.624C195.991 39.3453 195.852 39.0007 195.852 38.59C195.852 38.1793 195.991 37.842 196.27 37.578C196.563 37.2993 196.93 37.16 197.37 37.16C197.81 37.16 198.169 37.2993 198.448 37.578C198.741 37.842 198.888 38.1793 198.888 38.59C198.888 39.0007 198.741 39.3453 198.448 39.624C198.169 39.888 197.81 40.02 197.37 40.02ZM196.204 53V42.088H198.536V53H196.204ZM201.614 53V42.088H203.682L203.88 43.628C204.232 43.0707 204.694 42.6307 205.266 42.308C205.853 41.9853 206.527 41.824 207.29 41.824C209.021 41.824 210.223 42.506 210.898 43.87C211.294 43.2393 211.822 42.7407 212.482 42.374C213.157 42.0073 213.883 41.824 214.66 41.824C216.024 41.824 217.095 42.2347 217.872 43.056C218.649 43.8773 219.038 45.102 219.038 46.73V53H216.706V46.972C216.706 44.86 215.899 43.804 214.286 43.804C213.465 43.804 212.79 44.112 212.262 44.728C211.749 45.344 211.492 46.224 211.492 47.368V53H209.16V46.972C209.16 44.86 208.346 43.804 206.718 43.804C205.911 43.804 205.244 44.112 204.716 44.728C204.203 45.344 203.946 46.224 203.946 47.368V53H201.614ZM221.766 57.84V42.088H223.856L224.098 43.782C224.45 43.2687 224.934 42.814 225.55 42.418C226.166 42.022 226.958 41.824 227.926 41.824C228.982 41.824 229.914 42.0733 230.72 42.572C231.527 43.0707 232.158 43.7527 232.612 44.618C233.082 45.4833 233.316 46.466 233.316 47.566C233.316 48.666 233.082 49.6487 232.612 50.514C232.158 51.3647 231.527 52.0393 230.72 52.538C229.914 53.022 228.975 53.264 227.904 53.264C227.054 53.264 226.298 53.0953 225.638 52.758C224.993 52.4207 224.48 51.944 224.098 51.328V57.84H221.766ZM227.508 51.24C228.506 51.24 229.327 50.9027 229.972 50.228C230.618 49.5387 230.94 48.644 230.94 47.544C230.94 46.8253 230.794 46.1873 230.5 45.63C230.207 45.0727 229.804 44.64 229.29 44.332C228.777 44.0093 228.183 43.848 227.508 43.848C226.511 43.848 225.69 44.1927 225.044 44.882C224.414 45.5713 224.098 46.4587 224.098 47.544C224.098 48.644 224.414 49.5387 225.044 50.228C225.69 50.9027 226.511 51.24 227.508 51.24ZM235.839 53V37.16H238.171V53H235.839ZM246.228 53.264C245.157 53.264 244.204 53.0293 243.368 52.56C242.547 52.076 241.901 51.4087 241.432 50.558C240.963 49.7073 240.728 48.7173 240.728 47.588C240.728 46.444 240.955 45.4393 241.41 44.574C241.879 43.7087 242.525 43.034 243.346 42.55C244.182 42.066 245.15 41.824 246.25 41.824C247.321 41.824 248.252 42.066 249.044 42.55C249.836 43.0193 250.452 43.65 250.892 44.442C251.332 45.234 251.552 46.1067 251.552 47.06C251.552 47.2067 251.545 47.368 251.53 47.544C251.53 47.7053 251.523 47.8887 251.508 48.094H243.016C243.089 49.15 243.434 49.9567 244.05 50.514C244.681 51.0567 245.407 51.328 246.228 51.328C246.888 51.328 247.438 51.1813 247.878 50.888C248.333 50.58 248.67 50.1693 248.89 49.656H251.222C250.929 50.6827 250.342 51.5407 249.462 52.23C248.597 52.9193 247.519 53.264 246.228 53.264ZM246.228 43.738C245.451 43.738 244.761 43.9727 244.16 44.442C243.559 44.8967 243.192 45.586 243.06 46.51H249.22C249.176 45.6593 248.875 44.9847 248.318 44.486C247.761 43.9873 247.064 43.738 246.228 43.738Z" fill="white"/>
<path d="M14.7419 24.1183C14.7419 14.7984 22.3304 7.24168 31.6895 7.24168H69.8848C66.7862 3.65226 62.1698 1.38525 57.0476 1.38525H18.7259C9.36679 1.38525 1.77832 8.94193 1.77832 18.2618V73.6145L14.7419 59.3198V24.1183Z" fill="#29BEBE"/>
<path d="M1.77745 75C1.58774 75 1.46127 75 1.27156 74.937C0.702422 74.7481 0.38623 74.1814 0.38623 73.6146V18.262C0.38623 8.1864 8.60707 0 18.725 0H57.0468C67.1647 0 75.3855 8.1864 75.3855 18.262V35.3275C75.3855 45.403 67.1647 53.5894 57.0468 53.5894H21.8869L2.85249 74.5592C2.5363 74.874 2.15687 75 1.77745 75ZM18.6618 2.83375C10.1248 2.83375 3.16867 9.7607 3.16867 18.262V69.9622L20.1795 51.1965C20.4324 50.8816 20.8119 50.7557 21.1913 50.7557H56.9835C65.5206 50.7557 72.4766 43.8287 72.4766 35.3275V18.262C72.4766 9.7607 65.5206 2.83375 56.9835 2.83375H18.6618Z" fill="white"/>
</svg>
