<svg width="36" height="36" viewBox="0 0 36 36" fill="none" xmlns="http://www.w3.org/2000/svg">
<path d="M19.073 10.9137L11.7155 17.0824C11.5665 17.2074 11.4466 17.3638 11.3642 17.5407C11.2819 17.7176 11.2393 17.9106 11.2393 18.106C11.2393 18.3013 11.2819 18.4943 11.3642 18.6712C11.4466 18.8481 11.5665 19.0046 11.7155 19.1295L19.073 25.2983C19.266 25.4599 19.5006 25.5629 19.7495 25.5951C19.9984 25.6273 20.2513 25.5875 20.4785 25.4802C20.7058 25.3729 20.898 25.2026 21.0327 24.9893C21.1674 24.776 21.2391 24.5284 21.2393 24.2755V11.9364C21.2391 11.6835 21.1674 11.4359 21.0327 11.2226C20.898 11.0093 20.7058 10.839 20.4785 10.7317C20.2513 10.6245 19.9984 10.5846 19.7495 10.6168C19.5006 10.649 19.266 10.752 19.073 10.9137Z" fill="#C8C8C8"/>
<path d="M34 18C34 9.16667 26.8333 2 18 2C9.16667 2 2 9.16667 2 18C2 26.8333 9.16667 34 18 34C26.8333 34 34 26.8333 34 18Z" stroke="#C8C8C8" stroke-width="3" stroke-miterlimit="10"/>
</svg>
