<svg width="36" height="36" viewBox="0 0 36 36" fill="none" xmlns="http://www.w3.org/2000/svg">
<path d="M18 2C26.8333 2 34 9.16667 34 18C34 26.8333 26.8333 34 18 34C9.16667 34 2 26.8333 2 18C2 9.16667 9.16667 2 18 2Z" stroke="#C8C8C8" stroke-width="3" stroke-miterlimit="10"/>
<path d="M24.6923 15.1662L18.5235 22.5237C18.3986 22.6728 18.2421 22.7927 18.0652 22.875C17.8883 22.9573 17.6954 23 17.5 23C17.3046 23 17.1117 22.9573 16.9348 22.875C16.7579 22.7927 16.6014 22.6728 16.4765 22.5237L10.3077 15.1662C10.146 14.9733 10.0431 14.7386 10.0109 14.4897C9.97864 14.2408 10.0185 13.988 10.1258 13.7607C10.2331 13.5335 10.4033 13.3413 10.6167 13.2066C10.83 13.0718 11.0776 13.0002 11.3304 13L23.6696 13C23.9224 13.0002 24.17 13.0718 24.3833 13.2066C24.5967 13.3413 24.7669 13.5335 24.8742 13.7607C24.9815 13.988 25.0214 14.2408 24.9891 14.4897C24.9569 14.7386 24.854 14.9733 24.6923 15.1662Z" fill="#C8C8C8"/>
</svg>
